<?xml version="1.0" encoding="utf-8" standalone="no"?>
<!DOCTYPE svg PUBLIC "-//W3C//DTD SVG 1.1//EN"
  "http://www.w3.org/Graphics/SVG/1.1/DTD/svg11.dtd">
<svg xmlns:xlink="http://www.w3.org/1999/xlink" width="460.8pt" height="345.6pt" viewBox="0 0 460.8 345.6" xmlns="http://www.w3.org/2000/svg" version="1.1">
 <metadata>
  <rdf:RDF xmlns:dc="http://purl.org/dc/elements/1.1/" xmlns:cc="http://creativecommons.org/ns#" xmlns:rdf="http://www.w3.org/1999/02/22-rdf-syntax-ns#">
   <cc:Work>
    <dc:type rdf:resource="http://purl.org/dc/dcmitype/StillImage"/>
    <dc:date>2023-03-20T21:19:36.115706</dc:date>
    <dc:format>image/svg+xml</dc:format>
    <dc:creator>
     <cc:Agent>
      <dc:title>Matplotlib v3.6.2, https://matplotlib.org/</dc:title>
     </cc:Agent>
    </dc:creator>
   </cc:Work>
  </rdf:RDF>
 </metadata>
 <defs>
  <style type="text/css">*{stroke-linejoin: round; stroke-linecap: butt}</style>
 </defs>
 <g id="figure_1">
  <g id="patch_1">
   <path d="M 0 345.6 
L 460.8 345.6 
L 460.8 0 
L 0 0 
z
" style="fill: #ffffff"/>
  </g>
  <g id="axes_1">
   <g id="Quiver_1">
    <path d="M 73.832727 294.613238 
L 74.887871 294.613238 
L 74.01311 292.863715 
L 82.760727 295.488 
L 74.01311 298.112285 
L 74.887871 296.362762 
L 73.832727 296.362762 
L 73.832727 294.613238 
" clip-path="url(#pf9e0c232ff)"/>
    <path d="M 97.022338 294.613238 
L 98.077482 294.613238 
L 97.20272 292.863715 
L 105.950338 295.488 
L 97.20272 298.112285 
L 98.077482 296.362762 
L 97.022338 296.362762 
L 97.022338 294.613238 
" clip-path="url(#pf9e0c232ff)"/>
    <path d="M 120.211948 294.613238 
L 121.267092 294.613238 
L 120.39233 292.863715 
L 129.139948 295.488 
L 120.39233 298.112285 
L 121.267092 296.362762 
L 120.211948 296.362762 
L 120.211948 294.613238 
" clip-path="url(#pf9e0c232ff)"/>
    <path d="M 143.401558 294.613238 
L 144.456702 294.613238 
L 143.581941 292.863715 
L 152.329558 295.488 
L 143.581941 298.112285 
L 144.456702 296.362762 
L 143.401558 296.362762 
L 143.401558 294.613238 
" clip-path="url(#pf9e0c232ff)"/>
    <path d="M 166.591169 294.613238 
L 167.646313 294.613238 
L 166.771551 292.863715 
L 175.519169 295.488 
L 166.771551 298.112285 
L 167.646313 296.362762 
L 166.591169 296.362762 
L 166.591169 294.613238 
" clip-path="url(#pf9e0c232ff)"/>
    <path d="M 189.780779 294.613238 
L 190.835923 294.613238 
L 189.961161 292.863715 
L 198.708779 295.488 
L 189.961161 298.112285 
L 190.835923 296.362762 
L 189.780779 296.362762 
L 189.780779 294.613238 
" clip-path="url(#pf9e0c232ff)"/>
    <path d="M 212.97039 294.613238 
L 214.025534 294.613238 
L 213.150772 292.863715 
L 221.89839 295.488 
L 213.150772 298.112285 
L 214.025534 296.362762 
L 212.97039 296.362762 
L 212.97039 294.613238 
" clip-path="url(#pf9e0c232ff)"/>
    <path d="M 236.16 294.613238 
L 237.215144 294.613238 
L 236.340382 292.863715 
L 245.088 295.488 
L 236.340382 298.112285 
L 237.215144 296.362762 
L 236.16 296.362762 
L 236.16 294.613238 
" clip-path="url(#pf9e0c232ff)"/>
    <path d="M 259.34961 294.613238 
L 260.404754 294.613238 
L 259.529993 292.863715 
L 268.27761 295.488 
L 259.529993 298.112285 
L 260.404754 296.362762 
L 259.34961 296.362762 
L 259.34961 294.613238 
" clip-path="url(#pf9e0c232ff)"/>
    <path d="M 282.539221 294.613238 
L 283.594365 294.613238 
L 282.719603 292.863715 
L 291.467221 295.488 
L 282.719603 298.112285 
L 283.594365 296.362762 
L 282.539221 296.362762 
L 282.539221 294.613238 
" clip-path="url(#pf9e0c232ff)"/>
    <path d="M 305.728831 294.613238 
L 306.783975 294.613238 
L 305.909213 292.863715 
L 314.656831 295.488 
L 305.909213 298.112285 
L 306.783975 296.362762 
L 305.728831 296.362762 
L 305.728831 294.613238 
" clip-path="url(#pf9e0c232ff)"/>
    <path d="M 328.918442 294.613238 
L 329.973586 294.613238 
L 329.098824 292.863715 
L 337.846442 295.488 
L 329.098824 298.112285 
L 329.973586 296.362762 
L 328.918442 296.362762 
L 328.918442 294.613238 
" clip-path="url(#pf9e0c232ff)"/>
    <path d="M 352.108052 294.613238 
L 353.163196 294.613238 
L 352.288434 292.863715 
L 361.036052 295.488 
L 352.288434 298.112285 
L 353.163196 296.362762 
L 352.108052 296.362762 
L 352.108052 294.613238 
" clip-path="url(#pf9e0c232ff)"/>
    <path d="M 375.297662 294.613238 
L 376.352806 294.613238 
L 375.478045 292.863715 
L 384.225662 295.488 
L 375.478045 298.112285 
L 376.352806 296.362762 
L 375.297662 296.362762 
L 375.297662 294.613238 
" clip-path="url(#pf9e0c232ff)"/>
    <path d="M 398.487273 294.613238 
L 399.542417 294.613238 
L 398.667655 292.863715 
L 407.415273 295.488 
L 398.667655 298.112285 
L 399.542417 296.362762 
L 398.487273 296.362762 
L 398.487273 294.613238 
" clip-path="url(#pf9e0c232ff)"/>
    <path d="M 73.832727 267.733238 
L 74.887871 267.733238 
L 74.01311 265.983715 
L 82.760727 268.608 
L 74.01311 271.232285 
L 74.887871 269.482762 
L 73.832727 269.482762 
L 73.832727 267.733238 
" clip-path="url(#pf9e0c232ff)"/>
    <path d="M 97.022338 267.733238 
L 98.077482 267.733238 
L 97.20272 265.983715 
L 105.950338 268.608 
L 97.20272 271.232285 
L 98.077482 269.482762 
L 97.022338 269.482762 
L 97.022338 267.733238 
" clip-path="url(#pf9e0c232ff)"/>
    <path d="M 120.211948 267.733238 
L 121.267092 267.733238 
L 120.39233 265.983715 
L 129.139948 268.608 
L 120.39233 271.232285 
L 121.267092 269.482762 
L 120.211948 269.482762 
L 120.211948 267.733238 
" clip-path="url(#pf9e0c232ff)"/>
    <path d="M 143.401558 267.733238 
L 144.456702 267.733238 
L 143.581941 265.983715 
L 152.329558 268.608 
L 143.581941 271.232285 
L 144.456702 269.482762 
L 143.401558 269.482762 
L 143.401558 267.733238 
" clip-path="url(#pf9e0c232ff)"/>
    <path d="M 166.591169 267.733238 
L 167.646313 267.733238 
L 166.771551 265.983715 
L 175.519169 268.608 
L 166.771551 271.232285 
L 167.646313 269.482762 
L 166.591169 269.482762 
L 166.591169 267.733238 
" clip-path="url(#pf9e0c232ff)"/>
    <path d="M 189.780779 267.733238 
L 190.835923 267.733238 
L 189.961161 265.983715 
L 198.708779 268.608 
L 189.961161 271.232285 
L 190.835923 269.482762 
L 189.780779 269.482762 
L 189.780779 267.733238 
" clip-path="url(#pf9e0c232ff)"/>
    <path d="M 212.97039 267.733238 
L 214.025534 267.733238 
L 213.150772 265.983715 
L 221.89839 268.608 
L 213.150772 271.232285 
L 214.025534 269.482762 
L 212.97039 269.482762 
L 212.97039 267.733238 
" clip-path="url(#pf9e0c232ff)"/>
    <path d="M 236.16 267.733238 
L 237.215144 267.733238 
L 236.340382 265.983715 
L 245.088 268.608 
L 236.340382 271.232285 
L 237.215144 269.482762 
L 236.16 269.482762 
L 236.16 267.733238 
" clip-path="url(#pf9e0c232ff)"/>
    <path d="M 259.34961 267.733238 
L 260.404754 267.733238 
L 259.529993 265.983715 
L 268.27761 268.608 
L 259.529993 271.232285 
L 260.404754 269.482762 
L 259.34961 269.482762 
L 259.34961 267.733238 
" clip-path="url(#pf9e0c232ff)"/>
    <path d="M 282.539221 267.733238 
L 283.594365 267.733238 
L 282.719603 265.983715 
L 291.467221 268.608 
L 282.719603 271.232285 
L 283.594365 269.482762 
L 282.539221 269.482762 
L 282.539221 267.733238 
" clip-path="url(#pf9e0c232ff)"/>
    <path d="M 305.728831 267.733238 
L 306.783975 267.733238 
L 305.909213 265.983715 
L 314.656831 268.608 
L 305.909213 271.232285 
L 306.783975 269.482762 
L 305.728831 269.482762 
L 305.728831 267.733238 
" clip-path="url(#pf9e0c232ff)"/>
    <path d="M 328.918442 267.733238 
L 329.973586 267.733238 
L 329.098824 265.983715 
L 337.846442 268.608 
L 329.098824 271.232285 
L 329.973586 269.482762 
L 328.918442 269.482762 
L 328.918442 267.733238 
" clip-path="url(#pf9e0c232ff)"/>
    <path d="M 352.108052 267.733238 
L 353.163196 267.733238 
L 352.288434 265.983715 
L 361.036052 268.608 
L 352.288434 271.232285 
L 353.163196 269.482762 
L 352.108052 269.482762 
L 352.108052 267.733238 
" clip-path="url(#pf9e0c232ff)"/>
    <path d="M 375.297662 267.733238 
L 376.352806 267.733238 
L 375.478045 265.983715 
L 384.225662 268.608 
L 375.478045 271.232285 
L 376.352806 269.482762 
L 375.297662 269.482762 
L 375.297662 267.733238 
" clip-path="url(#pf9e0c232ff)"/>
    <path d="M 398.487273 267.733238 
L 399.542417 267.733238 
L 398.667655 265.983715 
L 407.415273 268.608 
L 398.667655 271.232285 
L 399.542417 269.482762 
L 398.487273 269.482762 
L 398.487273 267.733238 
" clip-path="url(#pf9e0c232ff)"/>
    <path d="M 73.832727 240.853238 
L 74.887871 240.853238 
L 74.01311 239.103715 
L 82.760727 241.728 
L 74.01311 244.352285 
L 74.887871 242.602762 
L 73.832727 242.602762 
L 73.832727 240.853238 
" clip-path="url(#pf9e0c232ff)"/>
    <path d="M 97.022338 240.853238 
L 98.077482 240.853238 
L 97.20272 239.103715 
L 105.950338 241.728 
L 97.20272 244.352285 
L 98.077482 242.602762 
L 97.022338 242.602762 
L 97.022338 240.853238 
" clip-path="url(#pf9e0c232ff)"/>
    <path d="M 120.211948 240.853238 
L 121.267092 240.853238 
L 120.39233 239.103715 
L 129.139948 241.728 
L 120.39233 244.352285 
L 121.267092 242.602762 
L 120.211948 242.602762 
L 120.211948 240.853238 
" clip-path="url(#pf9e0c232ff)"/>
    <path d="M 143.401558 240.853238 
L 144.456702 240.853238 
L 143.581941 239.103715 
L 152.329558 241.728 
L 143.581941 244.352285 
L 144.456702 242.602762 
L 143.401558 242.602762 
L 143.401558 240.853238 
" clip-path="url(#pf9e0c232ff)"/>
    <path d="M 166.591169 240.853238 
L 167.646313 240.853238 
L 166.771551 239.103715 
L 175.519169 241.728 
L 166.771551 244.352285 
L 167.646313 242.602762 
L 166.591169 242.602762 
L 166.591169 240.853238 
" clip-path="url(#pf9e0c232ff)"/>
    <path d="M 189.780779 240.853238 
L 190.835923 240.853238 
L 189.961161 239.103715 
L 198.708779 241.728 
L 189.961161 244.352285 
L 190.835923 242.602762 
L 189.780779 242.602762 
L 189.780779 240.853238 
" clip-path="url(#pf9e0c232ff)"/>
    <path d="M 212.97039 240.853238 
L 214.025534 240.853238 
L 213.150772 239.103715 
L 221.89839 241.728 
L 213.150772 244.352285 
L 214.025534 242.602762 
L 212.97039 242.602762 
L 212.97039 240.853238 
" clip-path="url(#pf9e0c232ff)"/>
    <path d="M 236.16 240.853238 
L 237.215144 240.853238 
L 236.340382 239.103715 
L 245.088 241.728 
L 236.340382 244.352285 
L 237.215144 242.602762 
L 236.16 242.602762 
L 236.16 240.853238 
" clip-path="url(#pf9e0c232ff)"/>
    <path d="M 259.34961 240.853238 
L 260.404754 240.853238 
L 259.529993 239.103715 
L 268.27761 241.728 
L 259.529993 244.352285 
L 260.404754 242.602762 
L 259.34961 242.602762 
L 259.34961 240.853238 
" clip-path="url(#pf9e0c232ff)"/>
    <path d="M 282.539221 240.853238 
L 283.594365 240.853238 
L 282.719603 239.103715 
L 291.467221 241.728 
L 282.719603 244.352285 
L 283.594365 242.602762 
L 282.539221 242.602762 
L 282.539221 240.853238 
" clip-path="url(#pf9e0c232ff)"/>
    <path d="M 305.728831 240.853238 
L 306.783975 240.853238 
L 305.909213 239.103715 
L 314.656831 241.728 
L 305.909213 244.352285 
L 306.783975 242.602762 
L 305.728831 242.602762 
L 305.728831 240.853238 
" clip-path="url(#pf9e0c232ff)"/>
    <path d="M 328.918442 240.853238 
L 329.973586 240.853238 
L 329.098824 239.103715 
L 337.846442 241.728 
L 329.098824 244.352285 
L 329.973586 242.602762 
L 328.918442 242.602762 
L 328.918442 240.853238 
" clip-path="url(#pf9e0c232ff)"/>
    <path d="M 352.108052 240.853238 
L 353.163196 240.853238 
L 352.288434 239.103715 
L 361.036052 241.728 
L 352.288434 244.352285 
L 353.163196 242.602762 
L 352.108052 242.602762 
L 352.108052 240.853238 
" clip-path="url(#pf9e0c232ff)"/>
    <path d="M 375.297662 240.853238 
L 376.352806 240.853238 
L 375.478045 239.103715 
L 384.225662 241.728 
L 375.478045 244.352285 
L 376.352806 242.602762 
L 375.297662 242.602762 
L 375.297662 240.853238 
" clip-path="url(#pf9e0c232ff)"/>
    <path d="M 398.487273 240.853238 
L 399.542417 240.853238 
L 398.667655 239.103715 
L 407.415273 241.728 
L 398.667655 244.352285 
L 399.542417 242.602762 
L 398.487273 242.602762 
L 398.487273 240.853238 
" clip-path="url(#pf9e0c232ff)"/>
    <path d="M 73.832727 213.973238 
L 74.887871 213.973238 
L 74.01311 212.223715 
L 82.760727 214.848 
L 74.01311 217.472285 
L 74.887871 215.722762 
L 73.832727 215.722762 
L 73.832727 213.973238 
" clip-path="url(#pf9e0c232ff)"/>
    <path d="M 97.022338 213.973238 
L 98.077482 213.973238 
L 97.20272 212.223715 
L 105.950338 214.848 
L 97.20272 217.472285 
L 98.077482 215.722762 
L 97.022338 215.722762 
L 97.022338 213.973238 
" clip-path="url(#pf9e0c232ff)"/>
    <path d="M 120.211948 213.973238 
L 121.267092 213.973238 
L 120.39233 212.223715 
L 129.139948 214.848 
L 120.39233 217.472285 
L 121.267092 215.722762 
L 120.211948 215.722762 
L 120.211948 213.973238 
" clip-path="url(#pf9e0c232ff)"/>
    <path d="M 143.401558 213.973238 
L 144.456702 213.973238 
L 143.581941 212.223715 
L 152.329558 214.848 
L 143.581941 217.472285 
L 144.456702 215.722762 
L 143.401558 215.722762 
L 143.401558 213.973238 
" clip-path="url(#pf9e0c232ff)"/>
    <path d="M 166.591169 213.973238 
L 167.646313 213.973238 
L 166.771551 212.223715 
L 175.519169 214.848 
L 166.771551 217.472285 
L 167.646313 215.722762 
L 166.591169 215.722762 
L 166.591169 213.973238 
" clip-path="url(#pf9e0c232ff)"/>
    <path d="M 189.780779 213.973238 
L 190.835923 213.973238 
L 189.961161 212.223715 
L 198.708779 214.848 
L 189.961161 217.472285 
L 190.835923 215.722762 
L 189.780779 215.722762 
L 189.780779 213.973238 
" clip-path="url(#pf9e0c232ff)"/>
    <path d="M 212.97039 213.973238 
L 214.025534 213.973238 
L 213.150772 212.223715 
L 221.89839 214.848 
L 213.150772 217.472285 
L 214.025534 215.722762 
L 212.97039 215.722762 
L 212.97039 213.973238 
" clip-path="url(#pf9e0c232ff)"/>
    <path d="M 236.16 213.973238 
L 237.215144 213.973238 
L 236.340382 212.223715 
L 245.088 214.848 
L 236.340382 217.472285 
L 237.215144 215.722762 
L 236.16 215.722762 
L 236.16 213.973238 
" clip-path="url(#pf9e0c232ff)"/>
    <path d="M 259.34961 213.973238 
L 260.404754 213.973238 
L 259.529993 212.223715 
L 268.27761 214.848 
L 259.529993 217.472285 
L 260.404754 215.722762 
L 259.34961 215.722762 
L 259.34961 213.973238 
" clip-path="url(#pf9e0c232ff)"/>
    <path d="M 282.539221 213.973238 
L 283.594365 213.973238 
L 282.719603 212.223715 
L 291.467221 214.848 
L 282.719603 217.472285 
L 283.594365 215.722762 
L 282.539221 215.722762 
L 282.539221 213.973238 
" clip-path="url(#pf9e0c232ff)"/>
    <path d="M 305.728831 213.973238 
L 306.783975 213.973238 
L 305.909213 212.223715 
L 314.656831 214.848 
L 305.909213 217.472285 
L 306.783975 215.722762 
L 305.728831 215.722762 
L 305.728831 213.973238 
" clip-path="url(#pf9e0c232ff)"/>
    <path d="M 328.918442 213.973238 
L 329.973586 213.973238 
L 329.098824 212.223715 
L 337.846442 214.848 
L 329.098824 217.472285 
L 329.973586 215.722762 
L 328.918442 215.722762 
L 328.918442 213.973238 
" clip-path="url(#pf9e0c232ff)"/>
    <path d="M 352.108052 213.973238 
L 353.163196 213.973238 
L 352.288434 212.223715 
L 361.036052 214.848 
L 352.288434 217.472285 
L 353.163196 215.722762 
L 352.108052 215.722762 
L 352.108052 213.973238 
" clip-path="url(#pf9e0c232ff)"/>
    <path d="M 375.297662 213.973238 
L 376.352806 213.973238 
L 375.478045 212.223715 
L 384.225662 214.848 
L 375.478045 217.472285 
L 376.352806 215.722762 
L 375.297662 215.722762 
L 375.297662 213.973238 
" clip-path="url(#pf9e0c232ff)"/>
    <path d="M 398.487273 213.973238 
L 399.542417 213.973238 
L 398.667655 212.223715 
L 407.415273 214.848 
L 398.667655 217.472285 
L 399.542417 215.722762 
L 398.487273 215.722762 
L 398.487273 213.973238 
" clip-path="url(#pf9e0c232ff)"/>
    <path d="M 73.832727 187.093238 
L 74.887871 187.093238 
L 74.01311 185.343715 
L 82.760727 187.968 
L 74.01311 190.592285 
L 74.887871 188.842762 
L 73.832727 188.842762 
L 73.832727 187.093238 
" clip-path="url(#pf9e0c232ff)"/>
    <path d="M 97.022338 187.093238 
L 98.077482 187.093238 
L 97.20272 185.343715 
L 105.950338 187.968 
L 97.20272 190.592285 
L 98.077482 188.842762 
L 97.022338 188.842762 
L 97.022338 187.093238 
" clip-path="url(#pf9e0c232ff)"/>
    <path d="M 120.211948 187.093238 
L 121.267092 187.093238 
L 120.39233 185.343715 
L 129.139948 187.968 
L 120.39233 190.592285 
L 121.267092 188.842762 
L 120.211948 188.842762 
L 120.211948 187.093238 
" clip-path="url(#pf9e0c232ff)"/>
    <path d="M 143.401558 187.093238 
L 144.456702 187.093238 
L 143.581941 185.343715 
L 152.329558 187.968 
L 143.581941 190.592285 
L 144.456702 188.842762 
L 143.401558 188.842762 
L 143.401558 187.093238 
" clip-path="url(#pf9e0c232ff)"/>
    <path d="M 166.591169 187.093238 
L 167.646313 187.093238 
L 166.771551 185.343715 
L 175.519169 187.968 
L 166.771551 190.592285 
L 167.646313 188.842762 
L 166.591169 188.842762 
L 166.591169 187.093238 
" clip-path="url(#pf9e0c232ff)"/>
    <path d="M 189.780779 187.093238 
L 190.835923 187.093238 
L 189.961161 185.343715 
L 198.708779 187.968 
L 189.961161 190.592285 
L 190.835923 188.842762 
L 189.780779 188.842762 
L 189.780779 187.093238 
" clip-path="url(#pf9e0c232ff)"/>
    <path d="M 212.97039 187.093238 
L 214.025534 187.093238 
L 213.150772 185.343715 
L 221.89839 187.968 
L 213.150772 190.592285 
L 214.025534 188.842762 
L 212.97039 188.842762 
L 212.97039 187.093238 
" clip-path="url(#pf9e0c232ff)"/>
    <path d="M 236.16 187.093238 
L 237.215144 187.093238 
L 236.340382 185.343715 
L 245.088 187.968 
L 236.340382 190.592285 
L 237.215144 188.842762 
L 236.16 188.842762 
L 236.16 187.093238 
" clip-path="url(#pf9e0c232ff)"/>
    <path d="M 259.34961 187.093238 
L 260.404754 187.093238 
L 259.529993 185.343715 
L 268.27761 187.968 
L 259.529993 190.592285 
L 260.404754 188.842762 
L 259.34961 188.842762 
L 259.34961 187.093238 
" clip-path="url(#pf9e0c232ff)"/>
    <path d="M 282.539221 187.093238 
L 283.594365 187.093238 
L 282.719603 185.343715 
L 291.467221 187.968 
L 282.719603 190.592285 
L 283.594365 188.842762 
L 282.539221 188.842762 
L 282.539221 187.093238 
" clip-path="url(#pf9e0c232ff)"/>
    <path d="M 305.728831 187.093238 
L 306.783975 187.093238 
L 305.909213 185.343715 
L 314.656831 187.968 
L 305.909213 190.592285 
L 306.783975 188.842762 
L 305.728831 188.842762 
L 305.728831 187.093238 
" clip-path="url(#pf9e0c232ff)"/>
    <path d="M 328.918442 187.093238 
L 329.973586 187.093238 
L 329.098824 185.343715 
L 337.846442 187.968 
L 329.098824 190.592285 
L 329.973586 188.842762 
L 328.918442 188.842762 
L 328.918442 187.093238 
" clip-path="url(#pf9e0c232ff)"/>
    <path d="M 352.108052 187.093238 
L 353.163196 187.093238 
L 352.288434 185.343715 
L 361.036052 187.968 
L 352.288434 190.592285 
L 353.163196 188.842762 
L 352.108052 188.842762 
L 352.108052 187.093238 
" clip-path="url(#pf9e0c232ff)"/>
    <path d="M 375.297662 187.093238 
L 376.352806 187.093238 
L 375.478045 185.343715 
L 384.225662 187.968 
L 375.478045 190.592285 
L 376.352806 188.842762 
L 375.297662 188.842762 
L 375.297662 187.093238 
" clip-path="url(#pf9e0c232ff)"/>
    <path d="M 398.487273 187.093238 
L 399.542417 187.093238 
L 398.667655 185.343715 
L 407.415273 187.968 
L 398.667655 190.592285 
L 399.542417 188.842762 
L 398.487273 188.842762 
L 398.487273 187.093238 
" clip-path="url(#pf9e0c232ff)"/>
    <path d="M 73.832727 160.213238 
L 74.887871 160.213238 
L 74.01311 158.463715 
L 82.760727 161.088 
L 74.01311 163.712285 
L 74.887871 161.962762 
L 73.832727 161.962762 
L 73.832727 160.213238 
" clip-path="url(#pf9e0c232ff)"/>
    <path d="M 97.022338 160.213238 
L 98.077482 160.213238 
L 97.20272 158.463715 
L 105.950338 161.088 
L 97.20272 163.712285 
L 98.077482 161.962762 
L 97.022338 161.962762 
L 97.022338 160.213238 
" clip-path="url(#pf9e0c232ff)"/>
    <path d="M 120.211948 160.213238 
L 121.267092 160.213238 
L 120.39233 158.463715 
L 129.139948 161.088 
L 120.39233 163.712285 
L 121.267092 161.962762 
L 120.211948 161.962762 
L 120.211948 160.213238 
" clip-path="url(#pf9e0c232ff)"/>
    <path d="M 143.401558 160.213238 
L 144.456702 160.213238 
L 143.581941 158.463715 
L 152.329558 161.088 
L 143.581941 163.712285 
L 144.456702 161.962762 
L 143.401558 161.962762 
L 143.401558 160.213238 
" clip-path="url(#pf9e0c232ff)"/>
    <path d="M 166.591169 160.213238 
L 167.646313 160.213238 
L 166.771551 158.463715 
L 175.519169 161.088 
L 166.771551 163.712285 
L 167.646313 161.962762 
L 166.591169 161.962762 
L 166.591169 160.213238 
" clip-path="url(#pf9e0c232ff)"/>
    <path d="M 189.780779 160.213238 
L 190.835923 160.213238 
L 189.961161 158.463715 
L 198.708779 161.088 
L 189.961161 163.712285 
L 190.835923 161.962762 
L 189.780779 161.962762 
L 189.780779 160.213238 
" clip-path="url(#pf9e0c232ff)"/>
    <path d="M 212.97039 160.213238 
L 214.025534 160.213238 
L 213.150772 158.463715 
L 221.89839 161.088 
L 213.150772 163.712285 
L 214.025534 161.962762 
L 212.97039 161.962762 
L 212.97039 160.213238 
" clip-path="url(#pf9e0c232ff)"/>
    <path d="M 236.16 160.213238 
L 237.215144 160.213238 
L 236.340382 158.463715 
L 245.088 161.088 
L 236.340382 163.712285 
L 237.215144 161.962762 
L 236.16 161.962762 
L 236.16 160.213238 
" clip-path="url(#pf9e0c232ff)"/>
    <path d="M 259.34961 160.213238 
L 260.404754 160.213238 
L 259.529993 158.463715 
L 268.27761 161.088 
L 259.529993 163.712285 
L 260.404754 161.962762 
L 259.34961 161.962762 
L 259.34961 160.213238 
" clip-path="url(#pf9e0c232ff)"/>
    <path d="M 282.539221 160.213238 
L 283.594365 160.213238 
L 282.719603 158.463715 
L 291.467221 161.088 
L 282.719603 163.712285 
L 283.594365 161.962762 
L 282.539221 161.962762 
L 282.539221 160.213238 
" clip-path="url(#pf9e0c232ff)"/>
    <path d="M 305.728831 160.213238 
L 306.783975 160.213238 
L 305.909213 158.463715 
L 314.656831 161.088 
L 305.909213 163.712285 
L 306.783975 161.962762 
L 305.728831 161.962762 
L 305.728831 160.213238 
" clip-path="url(#pf9e0c232ff)"/>
    <path d="M 328.918442 160.213238 
L 329.973586 160.213238 
L 329.098824 158.463715 
L 337.846442 161.088 
L 329.098824 163.712285 
L 329.973586 161.962762 
L 328.918442 161.962762 
L 328.918442 160.213238 
" clip-path="url(#pf9e0c232ff)"/>
    <path d="M 352.108052 160.213238 
L 353.163196 160.213238 
L 352.288434 158.463715 
L 361.036052 161.088 
L 352.288434 163.712285 
L 353.163196 161.962762 
L 352.108052 161.962762 
L 352.108052 160.213238 
" clip-path="url(#pf9e0c232ff)"/>
    <path d="M 375.297662 160.213238 
L 376.352806 160.213238 
L 375.478045 158.463715 
L 384.225662 161.088 
L 375.478045 163.712285 
L 376.352806 161.962762 
L 375.297662 161.962762 
L 375.297662 160.213238 
" clip-path="url(#pf9e0c232ff)"/>
    <path d="M 398.487273 160.213238 
L 399.542417 160.213238 
L 398.667655 158.463715 
L 407.415273 161.088 
L 398.667655 163.712285 
L 399.542417 161.962762 
L 398.487273 161.962762 
L 398.487273 160.213238 
" clip-path="url(#pf9e0c232ff)"/>
    <path d="M 73.832727 133.333238 
L 74.887871 133.333238 
L 74.01311 131.583715 
L 82.760727 134.208 
L 74.01311 136.832285 
L 74.887871 135.082762 
L 73.832727 135.082762 
L 73.832727 133.333238 
" clip-path="url(#pf9e0c232ff)"/>
    <path d="M 97.022338 133.333238 
L 98.077482 133.333238 
L 97.20272 131.583715 
L 105.950338 134.208 
L 97.20272 136.832285 
L 98.077482 135.082762 
L 97.022338 135.082762 
L 97.022338 133.333238 
" clip-path="url(#pf9e0c232ff)"/>
    <path d="M 120.211948 133.333238 
L 121.267092 133.333238 
L 120.39233 131.583715 
L 129.139948 134.208 
L 120.39233 136.832285 
L 121.267092 135.082762 
L 120.211948 135.082762 
L 120.211948 133.333238 
" clip-path="url(#pf9e0c232ff)"/>
    <path d="M 143.401558 133.333238 
L 144.456702 133.333238 
L 143.581941 131.583715 
L 152.329558 134.208 
L 143.581941 136.832285 
L 144.456702 135.082762 
L 143.401558 135.082762 
L 143.401558 133.333238 
" clip-path="url(#pf9e0c232ff)"/>
    <path d="M 166.591169 133.333238 
L 167.646313 133.333238 
L 166.771551 131.583715 
L 175.519169 134.208 
L 166.771551 136.832285 
L 167.646313 135.082762 
L 166.591169 135.082762 
L 166.591169 133.333238 
" clip-path="url(#pf9e0c232ff)"/>
    <path d="M 189.780779 133.333238 
L 190.835923 133.333238 
L 189.961161 131.583715 
L 198.708779 134.208 
L 189.961161 136.832285 
L 190.835923 135.082762 
L 189.780779 135.082762 
L 189.780779 133.333238 
" clip-path="url(#pf9e0c232ff)"/>
    <path d="M 212.97039 133.333238 
L 214.025534 133.333238 
L 213.150772 131.583715 
L 221.89839 134.208 
L 213.150772 136.832285 
L 214.025534 135.082762 
L 212.97039 135.082762 
L 212.97039 133.333238 
" clip-path="url(#pf9e0c232ff)"/>
    <path d="M 236.16 133.333238 
L 237.215144 133.333238 
L 236.340382 131.583715 
L 245.088 134.208 
L 236.340382 136.832285 
L 237.215144 135.082762 
L 236.16 135.082762 
L 236.16 133.333238 
" clip-path="url(#pf9e0c232ff)"/>
    <path d="M 259.34961 133.333238 
L 260.404754 133.333238 
L 259.529993 131.583715 
L 268.27761 134.208 
L 259.529993 136.832285 
L 260.404754 135.082762 
L 259.34961 135.082762 
L 259.34961 133.333238 
" clip-path="url(#pf9e0c232ff)"/>
    <path d="M 282.539221 133.333238 
L 283.594365 133.333238 
L 282.719603 131.583715 
L 291.467221 134.208 
L 282.719603 136.832285 
L 283.594365 135.082762 
L 282.539221 135.082762 
L 282.539221 133.333238 
" clip-path="url(#pf9e0c232ff)"/>
    <path d="M 305.728831 133.333238 
L 306.783975 133.333238 
L 305.909213 131.583715 
L 314.656831 134.208 
L 305.909213 136.832285 
L 306.783975 135.082762 
L 305.728831 135.082762 
L 305.728831 133.333238 
" clip-path="url(#pf9e0c232ff)"/>
    <path d="M 328.918442 133.333238 
L 329.973586 133.333238 
L 329.098824 131.583715 
L 337.846442 134.208 
L 329.098824 136.832285 
L 329.973586 135.082762 
L 328.918442 135.082762 
L 328.918442 133.333238 
" clip-path="url(#pf9e0c232ff)"/>
    <path d="M 352.108052 133.333238 
L 353.163196 133.333238 
L 352.288434 131.583715 
L 361.036052 134.208 
L 352.288434 136.832285 
L 353.163196 135.082762 
L 352.108052 135.082762 
L 352.108052 133.333238 
" clip-path="url(#pf9e0c232ff)"/>
    <path d="M 375.297662 133.333238 
L 376.352806 133.333238 
L 375.478045 131.583715 
L 384.225662 134.208 
L 375.478045 136.832285 
L 376.352806 135.082762 
L 375.297662 135.082762 
L 375.297662 133.333238 
" clip-path="url(#pf9e0c232ff)"/>
    <path d="M 398.487273 133.333238 
L 399.542417 133.333238 
L 398.667655 131.583715 
L 407.415273 134.208 
L 398.667655 136.832285 
L 399.542417 135.082762 
L 398.487273 135.082762 
L 398.487273 133.333238 
" clip-path="url(#pf9e0c232ff)"/>
    <path d="M 73.832727 106.453238 
L 74.887871 106.453238 
L 74.01311 104.703715 
L 82.760727 107.328 
L 74.01311 109.952285 
L 74.887871 108.202762 
L 73.832727 108.202762 
L 73.832727 106.453238 
" clip-path="url(#pf9e0c232ff)"/>
    <path d="M 97.022338 106.453238 
L 98.077482 106.453238 
L 97.20272 104.703715 
L 105.950338 107.328 
L 97.20272 109.952285 
L 98.077482 108.202762 
L 97.022338 108.202762 
L 97.022338 106.453238 
" clip-path="url(#pf9e0c232ff)"/>
    <path d="M 120.211948 106.453238 
L 121.267092 106.453238 
L 120.39233 104.703715 
L 129.139948 107.328 
L 120.39233 109.952285 
L 121.267092 108.202762 
L 120.211948 108.202762 
L 120.211948 106.453238 
" clip-path="url(#pf9e0c232ff)"/>
    <path d="M 143.401558 106.453238 
L 144.456702 106.453238 
L 143.581941 104.703715 
L 152.329558 107.328 
L 143.581941 109.952285 
L 144.456702 108.202762 
L 143.401558 108.202762 
L 143.401558 106.453238 
" clip-path="url(#pf9e0c232ff)"/>
    <path d="M 166.591169 106.453238 
L 167.646313 106.453238 
L 166.771551 104.703715 
L 175.519169 107.328 
L 166.771551 109.952285 
L 167.646313 108.202762 
L 166.591169 108.202762 
L 166.591169 106.453238 
" clip-path="url(#pf9e0c232ff)"/>
    <path d="M 189.780779 106.453238 
L 190.835923 106.453238 
L 189.961161 104.703715 
L 198.708779 107.328 
L 189.961161 109.952285 
L 190.835923 108.202762 
L 189.780779 108.202762 
L 189.780779 106.453238 
" clip-path="url(#pf9e0c232ff)"/>
    <path d="M 212.97039 106.453238 
L 214.025534 106.453238 
L 213.150772 104.703715 
L 221.89839 107.328 
L 213.150772 109.952285 
L 214.025534 108.202762 
L 212.97039 108.202762 
L 212.97039 106.453238 
" clip-path="url(#pf9e0c232ff)"/>
    <path d="M 236.16 106.453238 
L 237.215144 106.453238 
L 236.340382 104.703715 
L 245.088 107.328 
L 236.340382 109.952285 
L 237.215144 108.202762 
L 236.16 108.202762 
L 236.16 106.453238 
" clip-path="url(#pf9e0c232ff)"/>
    <path d="M 259.34961 106.453238 
L 260.404754 106.453238 
L 259.529993 104.703715 
L 268.27761 107.328 
L 259.529993 109.952285 
L 260.404754 108.202762 
L 259.34961 108.202762 
L 259.34961 106.453238 
" clip-path="url(#pf9e0c232ff)"/>
    <path d="M 282.539221 106.453238 
L 283.594365 106.453238 
L 282.719603 104.703715 
L 291.467221 107.328 
L 282.719603 109.952285 
L 283.594365 108.202762 
L 282.539221 108.202762 
L 282.539221 106.453238 
" clip-path="url(#pf9e0c232ff)"/>
    <path d="M 305.728831 106.453238 
L 306.783975 106.453238 
L 305.909213 104.703715 
L 314.656831 107.328 
L 305.909213 109.952285 
L 306.783975 108.202762 
L 305.728831 108.202762 
L 305.728831 106.453238 
" clip-path="url(#pf9e0c232ff)"/>
    <path d="M 328.918442 106.453238 
L 329.973586 106.453238 
L 329.098824 104.703715 
L 337.846442 107.328 
L 329.098824 109.952285 
L 329.973586 108.202762 
L 328.918442 108.202762 
L 328.918442 106.453238 
" clip-path="url(#pf9e0c232ff)"/>
    <path d="M 352.108052 106.453238 
L 353.163196 106.453238 
L 352.288434 104.703715 
L 361.036052 107.328 
L 352.288434 109.952285 
L 353.163196 108.202762 
L 352.108052 108.202762 
L 352.108052 106.453238 
" clip-path="url(#pf9e0c232ff)"/>
    <path d="M 375.297662 106.453238 
L 376.352806 106.453238 
L 375.478045 104.703715 
L 384.225662 107.328 
L 375.478045 109.952285 
L 376.352806 108.202762 
L 375.297662 108.202762 
L 375.297662 106.453238 
" clip-path="url(#pf9e0c232ff)"/>
    <path d="M 398.487273 106.453238 
L 399.542417 106.453238 
L 398.667655 104.703715 
L 407.415273 107.328 
L 398.667655 109.952285 
L 399.542417 108.202762 
L 398.487273 108.202762 
L 398.487273 106.453238 
" clip-path="url(#pf9e0c232ff)"/>
    <path d="M 73.832727 79.573238 
L 74.887871 79.573238 
L 74.01311 77.823715 
L 82.760727 80.448 
L 74.01311 83.072285 
L 74.887871 81.322762 
L 73.832727 81.322762 
L 73.832727 79.573238 
" clip-path="url(#pf9e0c232ff)"/>
    <path d="M 97.022338 79.573238 
L 98.077482 79.573238 
L 97.20272 77.823715 
L 105.950338 80.448 
L 97.20272 83.072285 
L 98.077482 81.322762 
L 97.022338 81.322762 
L 97.022338 79.573238 
" clip-path="url(#pf9e0c232ff)"/>
    <path d="M 120.211948 79.573238 
L 121.267092 79.573238 
L 120.39233 77.823715 
L 129.139948 80.448 
L 120.39233 83.072285 
L 121.267092 81.322762 
L 120.211948 81.322762 
L 120.211948 79.573238 
" clip-path="url(#pf9e0c232ff)"/>
    <path d="M 143.401558 79.573238 
L 144.456702 79.573238 
L 143.581941 77.823715 
L 152.329558 80.448 
L 143.581941 83.072285 
L 144.456702 81.322762 
L 143.401558 81.322762 
L 143.401558 79.573238 
" clip-path="url(#pf9e0c232ff)"/>
    <path d="M 166.591169 79.573238 
L 167.646313 79.573238 
L 166.771551 77.823715 
L 175.519169 80.448 
L 166.771551 83.072285 
L 167.646313 81.322762 
L 166.591169 81.322762 
L 166.591169 79.573238 
" clip-path="url(#pf9e0c232ff)"/>
    <path d="M 189.780779 79.573238 
L 190.835923 79.573238 
L 189.961161 77.823715 
L 198.708779 80.448 
L 189.961161 83.072285 
L 190.835923 81.322762 
L 189.780779 81.322762 
L 189.780779 79.573238 
" clip-path="url(#pf9e0c232ff)"/>
    <path d="M 212.97039 79.573238 
L 214.025534 79.573238 
L 213.150772 77.823715 
L 221.89839 80.448 
L 213.150772 83.072285 
L 214.025534 81.322762 
L 212.97039 81.322762 
L 212.97039 79.573238 
" clip-path="url(#pf9e0c232ff)"/>
    <path d="M 236.16 79.573238 
L 237.215144 79.573238 
L 236.340382 77.823715 
L 245.088 80.448 
L 236.340382 83.072285 
L 237.215144 81.322762 
L 236.16 81.322762 
L 236.16 79.573238 
" clip-path="url(#pf9e0c232ff)"/>
    <path d="M 259.34961 79.573238 
L 260.404754 79.573238 
L 259.529993 77.823715 
L 268.27761 80.448 
L 259.529993 83.072285 
L 260.404754 81.322762 
L 259.34961 81.322762 
L 259.34961 79.573238 
" clip-path="url(#pf9e0c232ff)"/>
    <path d="M 282.539221 79.573238 
L 283.594365 79.573238 
L 282.719603 77.823715 
L 291.467221 80.448 
L 282.719603 83.072285 
L 283.594365 81.322762 
L 282.539221 81.322762 
L 282.539221 79.573238 
" clip-path="url(#pf9e0c232ff)"/>
    <path d="M 305.728831 79.573238 
L 306.783975 79.573238 
L 305.909213 77.823715 
L 314.656831 80.448 
L 305.909213 83.072285 
L 306.783975 81.322762 
L 305.728831 81.322762 
L 305.728831 79.573238 
" clip-path="url(#pf9e0c232ff)"/>
    <path d="M 328.918442 79.573238 
L 329.973586 79.573238 
L 329.098824 77.823715 
L 337.846442 80.448 
L 329.098824 83.072285 
L 329.973586 81.322762 
L 328.918442 81.322762 
L 328.918442 79.573238 
" clip-path="url(#pf9e0c232ff)"/>
    <path d="M 352.108052 79.573238 
L 353.163196 79.573238 
L 352.288434 77.823715 
L 361.036052 80.448 
L 352.288434 83.072285 
L 353.163196 81.322762 
L 352.108052 81.322762 
L 352.108052 79.573238 
" clip-path="url(#pf9e0c232ff)"/>
    <path d="M 375.297662 79.573238 
L 376.352806 79.573238 
L 375.478045 77.823715 
L 384.225662 80.448 
L 375.478045 83.072285 
L 376.352806 81.322762 
L 375.297662 81.322762 
L 375.297662 79.573238 
" clip-path="url(#pf9e0c232ff)"/>
    <path d="M 398.487273 79.573238 
L 399.542417 79.573238 
L 398.667655 77.823715 
L 407.415273 80.448 
L 398.667655 83.072285 
L 399.542417 81.322762 
L 398.487273 81.322762 
L 398.487273 79.573238 
" clip-path="url(#pf9e0c232ff)"/>
    <path d="M 73.832727 52.693238 
L 74.887871 52.693238 
L 74.01311 50.943715 
L 82.760727 53.568 
L 74.01311 56.192285 
L 74.887871 54.442762 
L 73.832727 54.442762 
L 73.832727 52.693238 
" clip-path="url(#pf9e0c232ff)"/>
    <path d="M 97.022338 52.693238 
L 98.077482 52.693238 
L 97.20272 50.943715 
L 105.950338 53.568 
L 97.20272 56.192285 
L 98.077482 54.442762 
L 97.022338 54.442762 
L 97.022338 52.693238 
" clip-path="url(#pf9e0c232ff)"/>
    <path d="M 120.211948 52.693238 
L 121.267092 52.693238 
L 120.39233 50.943715 
L 129.139948 53.568 
L 120.39233 56.192285 
L 121.267092 54.442762 
L 120.211948 54.442762 
L 120.211948 52.693238 
" clip-path="url(#pf9e0c232ff)"/>
    <path d="M 143.401558 52.693238 
L 144.456702 52.693238 
L 143.581941 50.943715 
L 152.329558 53.568 
L 143.581941 56.192285 
L 144.456702 54.442762 
L 143.401558 54.442762 
L 143.401558 52.693238 
" clip-path="url(#pf9e0c232ff)"/>
    <path d="M 166.591169 52.693238 
L 167.646313 52.693238 
L 166.771551 50.943715 
L 175.519169 53.568 
L 166.771551 56.192285 
L 167.646313 54.442762 
L 166.591169 54.442762 
L 166.591169 52.693238 
" clip-path="url(#pf9e0c232ff)"/>
    <path d="M 189.780779 52.693238 
L 190.835923 52.693238 
L 189.961161 50.943715 
L 198.708779 53.568 
L 189.961161 56.192285 
L 190.835923 54.442762 
L 189.780779 54.442762 
L 189.780779 52.693238 
" clip-path="url(#pf9e0c232ff)"/>
    <path d="M 212.97039 52.693238 
L 214.025534 52.693238 
L 213.150772 50.943715 
L 221.89839 53.568 
L 213.150772 56.192285 
L 214.025534 54.442762 
L 212.97039 54.442762 
L 212.97039 52.693238 
" clip-path="url(#pf9e0c232ff)"/>
    <path d="M 236.16 52.693238 
L 237.215144 52.693238 
L 236.340382 50.943715 
L 245.088 53.568 
L 236.340382 56.192285 
L 237.215144 54.442762 
L 236.16 54.442762 
L 236.16 52.693238 
" clip-path="url(#pf9e0c232ff)"/>
    <path d="M 259.34961 52.693238 
L 260.404754 52.693238 
L 259.529993 50.943715 
L 268.27761 53.568 
L 259.529993 56.192285 
L 260.404754 54.442762 
L 259.34961 54.442762 
L 259.34961 52.693238 
" clip-path="url(#pf9e0c232ff)"/>
    <path d="M 282.539221 52.693238 
L 283.594365 52.693238 
L 282.719603 50.943715 
L 291.467221 53.568 
L 282.719603 56.192285 
L 283.594365 54.442762 
L 282.539221 54.442762 
L 282.539221 52.693238 
" clip-path="url(#pf9e0c232ff)"/>
    <path d="M 305.728831 52.693238 
L 306.783975 52.693238 
L 305.909213 50.943715 
L 314.656831 53.568 
L 305.909213 56.192285 
L 306.783975 54.442762 
L 305.728831 54.442762 
L 305.728831 52.693238 
" clip-path="url(#pf9e0c232ff)"/>
    <path d="M 328.918442 52.693238 
L 329.973586 52.693238 
L 329.098824 50.943715 
L 337.846442 53.568 
L 329.098824 56.192285 
L 329.973586 54.442762 
L 328.918442 54.442762 
L 328.918442 52.693238 
" clip-path="url(#pf9e0c232ff)"/>
    <path d="M 352.108052 52.693238 
L 353.163196 52.693238 
L 352.288434 50.943715 
L 361.036052 53.568 
L 352.288434 56.192285 
L 353.163196 54.442762 
L 352.108052 54.442762 
L 352.108052 52.693238 
" clip-path="url(#pf9e0c232ff)"/>
    <path d="M 375.297662 52.693238 
L 376.352806 52.693238 
L 375.478045 50.943715 
L 384.225662 53.568 
L 375.478045 56.192285 
L 376.352806 54.442762 
L 375.297662 54.442762 
L 375.297662 52.693238 
" clip-path="url(#pf9e0c232ff)"/>
    <path d="M 398.487273 52.693238 
L 399.542417 52.693238 
L 398.667655 50.943715 
L 407.415273 53.568 
L 398.667655 56.192285 
L 399.542417 54.442762 
L 398.487273 54.442762 
L 398.487273 52.693238 
" clip-path="url(#pf9e0c232ff)"/>
   </g>
  </g>
 </g>
 <defs>
  <clipPath id="pf9e0c232ff">
   <rect x="57.6" y="41.472" width="357.12" height="266.112"/>
  </clipPath>
 </defs>
</svg>
