<?xml version="1.0" encoding="utf-8" standalone="no"?>
<!DOCTYPE svg PUBLIC "-//W3C//DTD SVG 1.1//EN"
  "http://www.w3.org/Graphics/SVG/1.1/DTD/svg11.dtd">
<svg xmlns:xlink="http://www.w3.org/1999/xlink" width="357.12pt" height="266.112pt" viewBox="0 0 357.12 266.112" xmlns="http://www.w3.org/2000/svg" version="1.1">
 <metadata>
  <rdf:RDF xmlns:dc="http://purl.org/dc/elements/1.1/" xmlns:cc="http://creativecommons.org/ns#" xmlns:rdf="http://www.w3.org/1999/02/22-rdf-syntax-ns#">
   <cc:Work>
    <dc:type rdf:resource="http://purl.org/dc/dcmitype/StillImage"/>
    <dc:date>2023-05-04T14:39:04.632780</dc:date>
    <dc:format>image/svg+xml</dc:format>
    <dc:creator>
     <cc:Agent>
      <dc:title>Matplotlib v3.6.2, https://matplotlib.org/</dc:title>
     </cc:Agent>
    </dc:creator>
   </cc:Work>
  </rdf:RDF>
 </metadata>
 <defs>
  <style type="text/css">*{stroke-linejoin: round; stroke-linecap: butt}</style>
 </defs>
 <g id="figure_1">
  <g id="patch_1">
   <path d="M 0 266.112 
L 357.12 266.112 
L 357.12 0 
L 0 0 
z
" style="fill: #ffffff"/>
  </g>
  <g id="axes_1">
   <g id="line2d_1">
    <path d="M 64.846788 221.753099 
L 91.851483 221.753099 
L 118.856177 221.753099 
L 145.860872 221.753099 
L 172.865566 221.753099 
L 199.870261 221.753099 
L 226.874955 221.753099 
L 253.87965 221.753099 
L 280.884345 221.753099 
L 307.889039 221.753099 
" clip-path="url(#p04880a76c1)" style="fill: none; stroke: #0000ff; stroke-linecap: round"/>
   </g>
   <g id="line2d_2">
    <path d="M 64.846788 196.830067 
L 91.851483 196.830067 
L 118.856177 196.830067 
L 145.860872 196.830067 
L 172.865566 196.830067 
L 199.870261 196.830067 
L 226.874955 196.830067 
L 253.87965 196.830067 
L 280.884345 196.830067 
L 307.889039 196.830067 
" clip-path="url(#p04880a76c1)" style="fill: none; stroke: #0000ff; stroke-linecap: round"/>
   </g>
   <g id="line2d_3">
    <path d="M 64.846788 171.907035 
L 91.851483 171.907035 
L 118.856177 171.907035 
L 145.860872 171.907035 
L 172.865566 171.907035 
L 199.870261 171.907035 
L 226.874955 171.907035 
L 253.87965 171.907035 
L 280.884345 171.907035 
L 307.889039 171.907035 
" clip-path="url(#p04880a76c1)" style="fill: none; stroke: #0000ff; stroke-linecap: round"/>
   </g>
   <g id="line2d_4">
    <path d="M 64.846788 146.984004 
L 91.851483 146.984004 
L 118.856177 146.984004 
L 145.860872 146.984004 
L 172.865566 146.984004 
L 199.870261 146.984004 
L 226.874955 146.984004 
L 253.87965 146.984004 
L 280.884345 146.984004 
L 307.889039 146.984004 
" clip-path="url(#p04880a76c1)" style="fill: none; stroke: #0000ff; stroke-linecap: round"/>
   </g>
   <g id="line2d_5">
    <path d="M 64.846788 122.060972 
L 91.851483 122.060972 
L 118.856177 122.060972 
L 145.860872 122.060972 
L 172.865566 122.060972 
L 199.870261 122.060972 
L 226.874955 122.060972 
L 253.87965 122.060972 
L 280.884345 122.060972 
L 307.889039 122.060972 
" clip-path="url(#p04880a76c1)" style="fill: none; stroke: #0000ff; stroke-linecap: round"/>
   </g>
   <g id="line2d_6">
    <path d="M 64.846788 97.137941 
L 91.851483 97.137941 
L 118.856177 97.137941 
L 145.860872 97.137941 
L 172.865566 97.137941 
L 199.870261 97.137941 
L 226.874955 97.137941 
L 253.87965 97.137941 
L 280.884345 97.137941 
L 307.889039 97.137941 
" clip-path="url(#p04880a76c1)" style="fill: none; stroke: #0000ff; stroke-linecap: round"/>
   </g>
   <g id="line2d_7">
    <path d="M 64.846788 72.214909 
L 91.851483 72.214909 
L 118.856177 72.214909 
L 145.860872 72.214909 
L 172.865566 72.214909 
L 199.870261 72.214909 
L 226.874955 72.214909 
L 253.87965 72.214909 
L 280.884345 72.214909 
L 307.889039 72.214909 
" clip-path="url(#p04880a76c1)" style="fill: none; stroke: #0000ff; stroke-linecap: round"/>
   </g>
   <g id="line2d_8">
    <path d="M 64.846788 47.291878 
L 91.851483 47.291878 
L 118.856177 47.291878 
L 145.860872 47.291878 
L 172.865566 47.291878 
L 199.870261 47.291878 
L 226.874955 47.291878 
L 253.87965 47.291878 
L 280.884345 47.291878 
L 307.889039 47.291878 
" clip-path="url(#p04880a76c1)" style="fill: none; stroke: #0000ff; stroke-linecap: round"/>
   </g>
   <g id="line2d_9">
    <path d="M 64.846788 221.753099 
L 64.846788 196.830067 
L 64.846788 171.907035 
L 64.846788 146.984004 
L 64.846788 122.060972 
L 64.846788 97.137941 
L 64.846788 72.214909 
L 64.846788 47.291878 
" clip-path="url(#p04880a76c1)" style="fill: none; stroke: #0000ff; stroke-linecap: round"/>
   </g>
   <g id="line2d_10">
    <path d="M 91.851483 221.753099 
L 91.851483 196.830067 
L 91.851483 171.907035 
L 91.851483 146.984004 
L 91.851483 122.060972 
L 91.851483 97.137941 
L 91.851483 72.214909 
L 91.851483 47.291878 
" clip-path="url(#p04880a76c1)" style="fill: none; stroke: #0000ff; stroke-linecap: round"/>
   </g>
   <g id="line2d_11">
    <path d="M 118.856177 221.753099 
L 118.856177 196.830067 
L 118.856177 171.907035 
L 118.856177 146.984004 
L 118.856177 122.060972 
L 118.856177 97.137941 
L 118.856177 72.214909 
L 118.856177 47.291878 
" clip-path="url(#p04880a76c1)" style="fill: none; stroke: #0000ff; stroke-linecap: round"/>
   </g>
   <g id="line2d_12">
    <path d="M 145.860872 221.753099 
L 145.860872 196.830067 
L 145.860872 171.907035 
L 145.860872 146.984004 
L 145.860872 122.060972 
L 145.860872 97.137941 
L 145.860872 72.214909 
L 145.860872 47.291878 
" clip-path="url(#p04880a76c1)" style="fill: none; stroke: #0000ff; stroke-linecap: round"/>
   </g>
   <g id="line2d_13">
    <path d="M 172.865566 221.753099 
L 172.865566 196.830067 
L 172.865566 171.907035 
L 172.865566 146.984004 
L 172.865566 122.060972 
L 172.865566 97.137941 
L 172.865566 72.214909 
L 172.865566 47.291878 
" clip-path="url(#p04880a76c1)" style="fill: none; stroke: #0000ff; stroke-linecap: round"/>
   </g>
   <g id="line2d_14">
    <path d="M 199.870261 221.753099 
L 199.870261 196.830067 
L 199.870261 171.907035 
L 199.870261 146.984004 
L 199.870261 122.060972 
L 199.870261 97.137941 
L 199.870261 72.214909 
L 199.870261 47.291878 
" clip-path="url(#p04880a76c1)" style="fill: none; stroke: #0000ff; stroke-linecap: round"/>
   </g>
   <g id="line2d_15">
    <path d="M 226.874955 221.753099 
L 226.874955 196.830067 
L 226.874955 171.907035 
L 226.874955 146.984004 
L 226.874955 122.060972 
L 226.874955 97.137941 
L 226.874955 72.214909 
L 226.874955 47.291878 
" clip-path="url(#p04880a76c1)" style="fill: none; stroke: #0000ff; stroke-linecap: round"/>
   </g>
   <g id="line2d_16">
    <path d="M 253.87965 221.753099 
L 253.87965 196.830067 
L 253.87965 171.907035 
L 253.87965 146.984004 
L 253.87965 122.060972 
L 253.87965 97.137941 
L 253.87965 72.214909 
L 253.87965 47.291878 
" clip-path="url(#p04880a76c1)" style="fill: none; stroke: #0000ff; stroke-linecap: round"/>
   </g>
   <g id="line2d_17">
    <path d="M 280.884345 221.753099 
L 280.884345 196.830067 
L 280.884345 171.907035 
L 280.884345 146.984004 
L 280.884345 122.060972 
L 280.884345 97.137941 
L 280.884345 72.214909 
L 280.884345 47.291878 
" clip-path="url(#p04880a76c1)" style="fill: none; stroke: #0000ff; stroke-linecap: round"/>
   </g>
   <g id="line2d_18">
    <path d="M 307.889039 221.753099 
L 307.889039 196.830067 
L 307.889039 171.907035 
L 307.889039 146.984004 
L 307.889039 122.060972 
L 307.889039 97.137941 
L 307.889039 72.214909 
L 307.889039 47.291878 
" clip-path="url(#p04880a76c1)" style="fill: none; stroke: #0000ff; stroke-linecap: round"/>
   </g>
   <g id="line2d_19">
    <path d="M 16.232727 254.016 
L 63.936468 241.922854 
L 103.575766 233.870371 
L 138.426812 229.378216 
L 170.989538 227.565883 
L 202.153064 228.017939 
L 233.194846 230.189141 
L 265.575155 233.84017 
L 300.791072 238.935949 
L 340.887273 246.100459 
" clip-path="url(#p04880a76c1)" style="fill: none; stroke: #ff0000; stroke-linecap: round"/>
   </g>
   <g id="line2d_20">
    <path d="M 25.230905 215.08849 
L 69.448162 207.5392 
L 106.789874 202.543475 
L 140.085288 199.480819 
L 171.318516 198.230146 
L 201.441168 198.617329 
L 231.561132 200.098601 
L 262.950711 202.389411 
L 296.901393 205.552422 
L 335.146556 209.986181 
" clip-path="url(#p04880a76c1)" style="fill: none; stroke: #ff0000; stroke-linecap: round"/>
   </g>
   <g id="line2d_21">
    <path d="M 30.919676 180.100618 
L 73.024376 175.9367 
L 108.968737 173.161295 
L 141.275602 171.410443 
L 171.544027 170.670422 
L 200.908259 170.887925 
L 230.455796 171.759476 
L 261.274097 172.971898 
L 294.448085 174.603511 
L 331.585708 176.909229 
" clip-path="url(#p04880a76c1)" style="fill: none; stroke: #ff0000; stroke-linecap: round"/>
   </g>
   <g id="line2d_22">
    <path d="M 33.908049 147.182578 
L 75.035352 145.718062 
L 110.238537 144.731454 
L 141.970677 144.142006 
L 171.688889 143.920756 
L 200.599953 143.997043 
L 229.819855 144.243452 
L 260.365188 144.518167 
L 293.164982 144.880714 
L 329.782554 145.415017 
" clip-path="url(#p04880a76c1)" style="fill: none; stroke: #ff0000; stroke-linecap: round"/>
   </g>
   <g id="line2d_23">
    <path d="M 34.59931 114.937451 
L 75.590337 115.891063 
L 110.630309 116.528568 
L 142.149016 116.986559 
L 171.698081 117.318947 
L 200.521182 117.364229 
L 229.690806 117.048369 
L 260.133483 116.52454 
L 292.90238 115.753849 
L 329.481232 114.701725 
" clip-path="url(#p04880a76c1)" style="fill: none; stroke: #ff0000; stroke-linecap: round"/>
   </g>
   <g id="line2d_24">
    <path d="M 33.260418 82.389511 
L 74.779729 85.570741 
L 110.110677 87.825059 
L 141.776908 89.361436 
L 171.516845 90.199918 
L 200.575143 90.296919 
L 229.948755 89.676283 
L 260.585172 88.397995 
L 293.635579 86.463285 
L 330.567173 83.840811 
" clip-path="url(#p04880a76c1)" style="fill: none; stroke: #ff0000; stroke-linecap: round"/>
   </g>
   <g id="line2d_25">
    <path d="M 30.000593 48.612138 
L 72.578674 54.252487 
L 108.656996 58.133709 
L 140.915357 60.638312 
L 171.171961 61.927407 
L 200.690108 62.091868 
L 230.532928 61.191466 
L 261.680474 59.238025 
L 295.331731 56.177824 
L 333.109939 51.83427 
" clip-path="url(#p04880a76c1)" style="fill: none; stroke: #ff0000; stroke-linecap: round"/>
   </g>
   <g id="line2d_26">
    <path d="M 24.517975 12.096 
L 68.901464 20.524408 
L 106.274633 26.234901 
L 139.53853 29.839894 
L 170.624182 31.6865 
L 200.878974 31.967213 
L 231.454321 30.760256 
L 263.439936 28.063205 
L 298.132896 23.723241 
L 337.271881 17.467059 
" clip-path="url(#p04880a76c1)" style="fill: none; stroke: #ff0000; stroke-linecap: round"/>
   </g>
   <g id="line2d_27">
    <path d="M 16.232727 254.016 
L 25.230905 215.08849 
L 30.919676 180.100618 
L 33.908049 147.182578 
L 34.59931 114.937451 
L 33.260418 82.389511 
L 30.000593 48.612138 
L 24.517975 12.096 
" clip-path="url(#p04880a76c1)" style="fill: none; stroke: #ff0000; stroke-linecap: round"/>
   </g>
   <g id="line2d_28">
    <path d="M 63.936468 241.922854 
L 69.448162 207.5392 
L 73.024376 175.9367 
L 75.035352 145.718062 
L 75.590337 115.891063 
L 74.779729 85.570741 
L 72.578674 54.252487 
L 68.901464 20.524408 
" clip-path="url(#p04880a76c1)" style="fill: none; stroke: #ff0000; stroke-linecap: round"/>
   </g>
   <g id="line2d_29">
    <path d="M 103.575766 233.870371 
L 106.789874 202.543475 
L 108.968737 173.161295 
L 110.238537 144.731454 
L 110.630309 116.528568 
L 110.110677 87.825059 
L 108.656996 58.133709 
L 106.274633 26.234901 
" clip-path="url(#p04880a76c1)" style="fill: none; stroke: #ff0000; stroke-linecap: round"/>
   </g>
   <g id="line2d_30">
    <path d="M 138.426812 229.378216 
L 140.085288 199.480819 
L 141.275602 171.410443 
L 141.970677 144.142006 
L 142.149016 116.986559 
L 141.776908 89.361436 
L 140.915357 60.638312 
L 139.53853 29.839894 
" clip-path="url(#p04880a76c1)" style="fill: none; stroke: #ff0000; stroke-linecap: round"/>
   </g>
   <g id="line2d_31">
    <path d="M 170.989538 227.565883 
L 171.318516 198.230146 
L 171.544027 170.670422 
L 171.688889 143.920756 
L 171.698081 117.318947 
L 171.516845 90.199918 
L 171.171961 61.927407 
L 170.624182 31.6865 
" clip-path="url(#p04880a76c1)" style="fill: none; stroke: #ff0000; stroke-linecap: round"/>
   </g>
   <g id="line2d_32">
    <path d="M 202.153064 228.017939 
L 201.441168 198.617329 
L 200.908259 170.887925 
L 200.599953 143.997043 
L 200.521182 117.364229 
L 200.575143 90.296919 
L 200.690108 62.091868 
L 200.878974 31.967213 
" clip-path="url(#p04880a76c1)" style="fill: none; stroke: #ff0000; stroke-linecap: round"/>
   </g>
   <g id="line2d_33">
    <path d="M 233.194846 230.189141 
L 231.561132 200.098601 
L 230.455796 171.759476 
L 229.819855 144.243452 
L 229.690806 117.048369 
L 229.948755 89.676283 
L 230.532928 61.191466 
L 231.454321 30.760256 
" clip-path="url(#p04880a76c1)" style="fill: none; stroke: #ff0000; stroke-linecap: round"/>
   </g>
   <g id="line2d_34">
    <path d="M 265.575155 233.84017 
L 262.950711 202.389411 
L 261.274097 172.971898 
L 260.365188 144.518167 
L 260.133483 116.52454 
L 260.585172 88.397995 
L 261.680474 59.238025 
L 263.439936 28.063205 
" clip-path="url(#p04880a76c1)" style="fill: none; stroke: #ff0000; stroke-linecap: round"/>
   </g>
   <g id="line2d_35">
    <path d="M 300.791072 238.935949 
L 296.901393 205.552422 
L 294.448085 174.603511 
L 293.164982 144.880714 
L 292.90238 115.753849 
L 293.635579 86.463285 
L 295.331731 56.177824 
L 298.132896 23.723241 
" clip-path="url(#p04880a76c1)" style="fill: none; stroke: #ff0000; stroke-linecap: round"/>
   </g>
   <g id="line2d_36">
    <path d="M 340.887273 246.100459 
L 335.146556 209.986181 
L 331.585708 176.909229 
L 329.782554 145.415017 
L 329.481232 114.701725 
L 330.567173 83.840811 
L 333.109939 51.83427 
L 337.271881 17.467059 
" clip-path="url(#p04880a76c1)" style="fill: none; stroke: #ff0000; stroke-linecap: round"/>
   </g>
  </g>
 </g>
 <defs>
  <clipPath id="p04880a76c1">
   <rect x="0" y="-0" width="357.12" height="266.112"/>
  </clipPath>
 </defs>
</svg>
