<?xml version="1.0" encoding="utf-8" standalone="no"?>
<!DOCTYPE svg PUBLIC "-//W3C//DTD SVG 1.1//EN"
  "http://www.w3.org/Graphics/SVG/1.1/DTD/svg11.dtd">
<svg xmlns:xlink="http://www.w3.org/1999/xlink" width="357.12pt" height="266.112pt" viewBox="0 0 357.12 266.112" xmlns="http://www.w3.org/2000/svg" version="1.1">
 <metadata>
  <rdf:RDF xmlns:dc="http://purl.org/dc/elements/1.1/" xmlns:cc="http://creativecommons.org/ns#" xmlns:rdf="http://www.w3.org/1999/02/22-rdf-syntax-ns#">
   <cc:Work>
    <dc:type rdf:resource="http://purl.org/dc/dcmitype/StillImage"/>
    <dc:date>2023-05-15T10:42:27.848536</dc:date>
    <dc:format>image/svg+xml</dc:format>
    <dc:creator>
     <cc:Agent>
      <dc:title>Matplotlib v3.6.2, https://matplotlib.org/</dc:title>
     </cc:Agent>
    </dc:creator>
   </cc:Work>
  </rdf:RDF>
 </metadata>
 <defs>
  <style type="text/css">*{stroke-linejoin: round; stroke-linecap: butt}</style>
 </defs>
 <g id="figure_1">
  <g id="patch_1">
   <path d="M 0 266.112 
L 357.12 266.112 
L 357.12 0 
L 0 0 
z
" style="fill: #ffffff"/>
  </g>
  <g id="axes_1">
   <g id="line2d_1">
    <path d="M 16.232727 254.016 
L 52.305455 254.016 
L 88.378182 254.016 
L 124.450909 254.016 
L 160.523636 254.016 
L 196.596364 254.016 
L 232.669091 254.016 
L 268.741818 254.016 
L 304.814545 254.016 
L 340.887273 254.016 
" clip-path="url(#pb8b4262bd8)" style="fill: none; stroke: #0000ff; stroke-linecap: round"/>
   </g>
   <g id="line2d_2">
    <path d="M 16.232727 219.456 
L 52.305455 219.456 
L 88.378182 219.456 
L 124.450909 219.456 
L 160.523636 219.456 
L 196.596364 219.456 
L 232.669091 219.456 
L 268.741818 219.456 
L 304.814545 219.456 
L 340.887273 219.456 
" clip-path="url(#pb8b4262bd8)" style="fill: none; stroke: #0000ff; stroke-linecap: round"/>
   </g>
   <g id="line2d_3">
    <path d="M 16.232727 184.896 
L 52.305455 184.896 
L 88.378182 184.896 
L 124.450909 184.896 
L 160.523636 184.896 
L 196.596364 184.896 
L 232.669091 184.896 
L 268.741818 184.896 
L 304.814545 184.896 
L 340.887273 184.896 
" clip-path="url(#pb8b4262bd8)" style="fill: none; stroke: #0000ff; stroke-linecap: round"/>
   </g>
   <g id="line2d_4">
    <path d="M 16.232727 150.336 
L 52.305455 150.336 
L 88.378182 150.336 
L 124.450909 150.336 
L 160.523636 150.336 
L 196.596364 150.336 
L 232.669091 150.336 
L 268.741818 150.336 
L 304.814545 150.336 
L 340.887273 150.336 
" clip-path="url(#pb8b4262bd8)" style="fill: none; stroke: #0000ff; stroke-linecap: round"/>
   </g>
   <g id="line2d_5">
    <path d="M 16.232727 115.776 
L 52.305455 115.776 
L 88.378182 115.776 
L 124.450909 115.776 
L 160.523636 115.776 
L 196.596364 115.776 
L 232.669091 115.776 
L 268.741818 115.776 
L 304.814545 115.776 
L 340.887273 115.776 
" clip-path="url(#pb8b4262bd8)" style="fill: none; stroke: #0000ff; stroke-linecap: round"/>
   </g>
   <g id="line2d_6">
    <path d="M 16.232727 81.216 
L 52.305455 81.216 
L 88.378182 81.216 
L 124.450909 81.216 
L 160.523636 81.216 
L 196.596364 81.216 
L 232.669091 81.216 
L 268.741818 81.216 
L 304.814545 81.216 
L 340.887273 81.216 
" clip-path="url(#pb8b4262bd8)" style="fill: none; stroke: #0000ff; stroke-linecap: round"/>
   </g>
   <g id="line2d_7">
    <path d="M 16.232727 46.656 
L 52.305455 46.656 
L 88.378182 46.656 
L 124.450909 46.656 
L 160.523636 46.656 
L 196.596364 46.656 
L 232.669091 46.656 
L 268.741818 46.656 
L 304.814545 46.656 
L 340.887273 46.656 
" clip-path="url(#pb8b4262bd8)" style="fill: none; stroke: #0000ff; stroke-linecap: round"/>
   </g>
   <g id="line2d_8">
    <path d="M 16.232727 12.096 
L 52.305455 12.096 
L 88.378182 12.096 
L 124.450909 12.096 
L 160.523636 12.096 
L 196.596364 12.096 
L 232.669091 12.096 
L 268.741818 12.096 
L 304.814545 12.096 
L 340.887273 12.096 
" clip-path="url(#pb8b4262bd8)" style="fill: none; stroke: #0000ff; stroke-linecap: round"/>
   </g>
   <g id="line2d_9">
    <path d="M 16.232727 254.016 
L 16.232727 219.456 
L 16.232727 184.896 
L 16.232727 150.336 
L 16.232727 115.776 
L 16.232727 81.216 
L 16.232727 46.656 
L 16.232727 12.096 
" clip-path="url(#pb8b4262bd8)" style="fill: none; stroke: #0000ff; stroke-linecap: round"/>
   </g>
   <g id="line2d_10">
    <path d="M 52.305455 254.016 
L 52.305455 219.456 
L 52.305455 184.896 
L 52.305455 150.336 
L 52.305455 115.776 
L 52.305455 81.216 
L 52.305455 46.656 
L 52.305455 12.096 
" clip-path="url(#pb8b4262bd8)" style="fill: none; stroke: #0000ff; stroke-linecap: round"/>
   </g>
   <g id="line2d_11">
    <path d="M 88.378182 254.016 
L 88.378182 219.456 
L 88.378182 184.896 
L 88.378182 150.336 
L 88.378182 115.776 
L 88.378182 81.216 
L 88.378182 46.656 
L 88.378182 12.096 
" clip-path="url(#pb8b4262bd8)" style="fill: none; stroke: #0000ff; stroke-linecap: round"/>
   </g>
   <g id="line2d_12">
    <path d="M 124.450909 254.016 
L 124.450909 219.456 
L 124.450909 184.896 
L 124.450909 150.336 
L 124.450909 115.776 
L 124.450909 81.216 
L 124.450909 46.656 
L 124.450909 12.096 
" clip-path="url(#pb8b4262bd8)" style="fill: none; stroke: #0000ff; stroke-linecap: round"/>
   </g>
   <g id="line2d_13">
    <path d="M 160.523636 254.016 
L 160.523636 219.456 
L 160.523636 184.896 
L 160.523636 150.336 
L 160.523636 115.776 
L 160.523636 81.216 
L 160.523636 46.656 
L 160.523636 12.096 
" clip-path="url(#pb8b4262bd8)" style="fill: none; stroke: #0000ff; stroke-linecap: round"/>
   </g>
   <g id="line2d_14">
    <path d="M 196.596364 254.016 
L 196.596364 219.456 
L 196.596364 184.896 
L 196.596364 150.336 
L 196.596364 115.776 
L 196.596364 81.216 
L 196.596364 46.656 
L 196.596364 12.096 
" clip-path="url(#pb8b4262bd8)" style="fill: none; stroke: #0000ff; stroke-linecap: round"/>
   </g>
   <g id="line2d_15">
    <path d="M 232.669091 254.016 
L 232.669091 219.456 
L 232.669091 184.896 
L 232.669091 150.336 
L 232.669091 115.776 
L 232.669091 81.216 
L 232.669091 46.656 
L 232.669091 12.096 
" clip-path="url(#pb8b4262bd8)" style="fill: none; stroke: #0000ff; stroke-linecap: round"/>
   </g>
   <g id="line2d_16">
    <path d="M 268.741818 254.016 
L 268.741818 219.456 
L 268.741818 184.896 
L 268.741818 150.336 
L 268.741818 115.776 
L 268.741818 81.216 
L 268.741818 46.656 
L 268.741818 12.096 
" clip-path="url(#pb8b4262bd8)" style="fill: none; stroke: #0000ff; stroke-linecap: round"/>
   </g>
   <g id="line2d_17">
    <path d="M 304.814545 254.016 
L 304.814545 219.456 
L 304.814545 184.896 
L 304.814545 150.336 
L 304.814545 115.776 
L 304.814545 81.216 
L 304.814545 46.656 
L 304.814545 12.096 
" clip-path="url(#pb8b4262bd8)" style="fill: none; stroke: #0000ff; stroke-linecap: round"/>
   </g>
   <g id="line2d_18">
    <path d="M 340.887273 254.016 
L 340.887273 219.456 
L 340.887273 184.896 
L 340.887273 150.336 
L 340.887273 115.776 
L 340.887273 81.216 
L 340.887273 46.656 
L 340.887273 12.096 
" clip-path="url(#pb8b4262bd8)" style="fill: none; stroke: #0000ff; stroke-linecap: round"/>
   </g>
   <g id="line2d_19">
    <path d="M 42.730777 235.293148 
L 69.579165 238.012255 
L 98.805301 240.101253 
L 129.99549 241.55958 
L 162.437196 242.433508 
L 195.37055 242.731536 
L 228.018891 242.382826 
L 259.720219 241.323088 
L 289.968587 239.591195 
L 318.390202 237.300527 
" clip-path="url(#pb8b4262bd8)" style="fill: none; stroke: #ff0000; stroke-linecap: round"/>
   </g>
   <g id="line2d_20">
    <path d="M 41.391532 206.896254 
L 68.408625 208.914791 
L 97.839217 210.488884 
L 129.319915 211.54944 
L 162.108213 212.170346 
L 195.411963 212.35342 
L 228.435463 212.069123 
L 260.485565 211.256252 
L 291.019657 209.944273 
L 319.614031 208.235022 
" clip-path="url(#pb8b4262bd8)" style="fill: none; stroke: #ff0000; stroke-linecap: round"/>
   </g>
   <g id="line2d_21">
    <path d="M 40.535553 177.650239 
L 67.594384 178.908642 
L 97.199226 179.853652 
L 128.859428 180.512372 
L 161.881564 180.883597 
L 195.447556 180.976881 
L 228.735025 180.795484 
L 261.024782 180.295041 
L 291.732314 179.492508 
L 320.429019 178.452032 
" clip-path="url(#pb8b4262bd8)" style="fill: none; stroke: #ff0000; stroke-linecap: round"/>
   </g>
   <g id="line2d_22">
    <path d="M 40.151189 147.962305 
L 67.215231 148.334887 
L 96.865988 148.615137 
L 128.62025 148.796147 
L 161.766499 148.904749 
L 195.470559 148.939783 
L 228.895646 148.905102 
L 261.306415 148.763694 
L 292.074192 148.520607 
L 320.790251 148.231477 
" clip-path="url(#pb8b4262bd8)" style="fill: none; stroke: #ff0000; stroke-linecap: round"/>
   </g>
   <g id="line2d_23">
    <path d="M 40.347457 118.158717 
L 67.318859 117.59125 
L 96.89972 117.128897 
L 128.610508 116.808095 
L 161.759682 116.651305 
L 195.465711 116.643717 
L 228.893581 116.776177 
L 261.301543 117.04897 
L 292.024849 117.437473 
L 320.660899 117.929079 
" clip-path="url(#pb8b4262bd8)" style="fill: none; stroke: #ff0000; stroke-linecap: round"/>
   </g>
   <g id="line2d_24">
    <path d="M 41.161654 88.654012 
L 67.916258 87.11103 
L 97.311588 85.870676 
L 128.855755 85.00279 
L 161.844628 84.542673 
L 195.419766 84.499495 
L 228.714275 84.848461 
L 260.970808 85.562888 
L 291.546653 86.599561 
L 320.014901 87.887194 
" clip-path="url(#pb8b4262bd8)" style="fill: none; stroke: #ff0000; stroke-linecap: round"/>
   </g>
   <g id="line2d_25">
    <path d="M 42.551004 59.815973 
L 69.074572 57.337864 
L 98.160608 55.318392 
L 129.393645 53.880802 
L 162.060897 53.091606 
L 195.32253 52.993103 
L 228.328058 53.553292 
L 260.298546 54.713922 
L 290.598541 56.398951 
L 318.834367 58.46447 
" clip-path="url(#pb8b4262bd8)" style="fill: none; stroke: #ff0000; stroke-linecap: round"/>
   </g>
   <g id="line2d_26">
    <path d="M 44.563871 32.010438 
L 70.727699 28.637835 
L 99.425022 25.866795 
L 130.197803 23.874544 
L 162.396834 22.770189 
L 195.180785 22.61973 
L 227.736055 23.362125 
L 259.286103 24.933108 
L 289.224818 27.202175 
L 317.12164 30.01267 
" clip-path="url(#pb8b4262bd8)" style="fill: none; stroke: #ff0000; stroke-linecap: round"/>
   </g>
   <g id="line2d_27">
    <path d="M 42.730777 235.293148 
L 41.391532 206.896254 
L 40.535553 177.650239 
L 40.151189 147.962305 
L 40.347457 118.158717 
L 41.161654 88.654012 
L 42.551004 59.815973 
L 44.563871 32.010438 
" clip-path="url(#pb8b4262bd8)" style="fill: none; stroke: #ff0000; stroke-linecap: round"/>
   </g>
   <g id="line2d_28">
    <path d="M 69.579165 238.012255 
L 68.408625 208.914791 
L 67.594384 178.908642 
L 67.215231 148.334887 
L 67.318859 117.59125 
L 67.916258 87.11103 
L 69.074572 57.337864 
L 70.727699 28.637835 
" clip-path="url(#pb8b4262bd8)" style="fill: none; stroke: #ff0000; stroke-linecap: round"/>
   </g>
   <g id="line2d_29">
    <path d="M 98.805301 240.101253 
L 97.839217 210.488884 
L 97.199226 179.853652 
L 96.865988 148.615137 
L 96.89972 117.128897 
L 97.311588 85.870676 
L 98.160608 55.318392 
L 99.425022 25.866795 
" clip-path="url(#pb8b4262bd8)" style="fill: none; stroke: #ff0000; stroke-linecap: round"/>
   </g>
   <g id="line2d_30">
    <path d="M 129.99549 241.55958 
L 129.319915 211.54944 
L 128.859428 180.512372 
L 128.62025 148.796147 
L 128.610508 116.808095 
L 128.855755 85.00279 
L 129.393645 53.880802 
L 130.197803 23.874544 
" clip-path="url(#pb8b4262bd8)" style="fill: none; stroke: #ff0000; stroke-linecap: round"/>
   </g>
   <g id="line2d_31">
    <path d="M 162.437196 242.433508 
L 162.108213 212.170346 
L 161.881564 180.883597 
L 161.766499 148.904749 
L 161.759682 116.651305 
L 161.844628 84.542673 
L 162.060897 53.091606 
L 162.396834 22.770189 
" clip-path="url(#pb8b4262bd8)" style="fill: none; stroke: #ff0000; stroke-linecap: round"/>
   </g>
   <g id="line2d_32">
    <path d="M 195.37055 242.731536 
L 195.411963 212.35342 
L 195.447556 180.976881 
L 195.470559 148.939783 
L 195.465711 116.643717 
L 195.419766 84.499495 
L 195.32253 52.993103 
L 195.180785 22.61973 
" clip-path="url(#pb8b4262bd8)" style="fill: none; stroke: #ff0000; stroke-linecap: round"/>
   </g>
   <g id="line2d_33">
    <path d="M 228.018891 242.382826 
L 228.435463 212.069123 
L 228.735025 180.795484 
L 228.895646 148.905102 
L 228.893581 116.776177 
L 228.714275 84.848461 
L 228.328058 53.553292 
L 227.736055 23.362125 
" clip-path="url(#pb8b4262bd8)" style="fill: none; stroke: #ff0000; stroke-linecap: round"/>
   </g>
   <g id="line2d_34">
    <path d="M 259.720219 241.323088 
L 260.485565 211.256252 
L 261.024782 180.295041 
L 261.306415 148.763694 
L 261.301543 117.04897 
L 260.970808 85.562888 
L 260.298546 54.713922 
L 259.286103 24.933108 
" clip-path="url(#pb8b4262bd8)" style="fill: none; stroke: #ff0000; stroke-linecap: round"/>
   </g>
   <g id="line2d_35">
    <path d="M 289.968587 239.591195 
L 291.019657 209.944273 
L 291.732314 179.492508 
L 292.074192 148.520607 
L 292.024849 117.437473 
L 291.546653 86.599561 
L 290.598541 56.398951 
L 289.224818 27.202175 
" clip-path="url(#pb8b4262bd8)" style="fill: none; stroke: #ff0000; stroke-linecap: round"/>
   </g>
   <g id="line2d_36">
    <path d="M 318.390202 237.300527 
L 319.614031 208.235022 
L 320.429019 178.452032 
L 320.790251 148.231477 
L 320.660899 117.929079 
L 320.014901 87.887194 
L 318.834367 58.46447 
L 317.12164 30.01267 
" clip-path="url(#pb8b4262bd8)" style="fill: none; stroke: #ff0000; stroke-linecap: round"/>
   </g>
  </g>
 </g>
 <defs>
  <clipPath id="pb8b4262bd8">
   <rect x="0" y="-0" width="357.12" height="266.112"/>
  </clipPath>
 </defs>
</svg>
