<?xml version="1.0" encoding="utf-8" standalone="no"?>
<!DOCTYPE svg PUBLIC "-//W3C//DTD SVG 1.1//EN"
  "http://www.w3.org/Graphics/SVG/1.1/DTD/svg11.dtd">
<svg xmlns:xlink="http://www.w3.org/1999/xlink" width="357.12pt" height="266.112pt" viewBox="0 0 357.12 266.112" xmlns="http://www.w3.org/2000/svg" version="1.1">
 <metadata>
  <rdf:RDF xmlns:dc="http://purl.org/dc/elements/1.1/" xmlns:cc="http://creativecommons.org/ns#" xmlns:rdf="http://www.w3.org/1999/02/22-rdf-syntax-ns#">
   <cc:Work>
    <dc:type rdf:resource="http://purl.org/dc/dcmitype/StillImage"/>
    <dc:date>2023-05-04T14:38:00.645573</dc:date>
    <dc:format>image/svg+xml</dc:format>
    <dc:creator>
     <cc:Agent>
      <dc:title>Matplotlib v3.6.2, https://matplotlib.org/</dc:title>
     </cc:Agent>
    </dc:creator>
   </cc:Work>
  </rdf:RDF>
 </metadata>
 <defs>
  <style type="text/css">*{stroke-linejoin: round; stroke-linecap: butt}</style>
 </defs>
 <g id="figure_1">
  <g id="patch_1">
   <path d="M 0 266.112 
L 357.12 266.112 
L 357.12 0 
L 0 0 
z
" style="fill: #ffffff"/>
  </g>
  <g id="axes_1">
   <g id="line2d_1">
    <path d="M 162.721506 147.833029 
L 176.341523 147.833029 
L 189.961539 147.833029 
L 203.581556 147.833029 
L 217.201572 147.833029 
L 230.821589 147.833029 
L 244.441606 147.833029 
L 258.061622 147.833029 
L 271.681639 147.833029 
L 285.301655 147.833029 
" clip-path="url(#pc9133b0e37)" style="fill: none; stroke: #0000ff; stroke-linecap: round"/>
   </g>
   <g id="line2d_2">
    <path d="M 162.721506 135.418359 
L 176.341523 135.418359 
L 189.961539 135.418359 
L 203.581556 135.418359 
L 217.201572 135.418359 
L 230.821589 135.418359 
L 244.441606 135.418359 
L 258.061622 135.418359 
L 271.681639 135.418359 
L 285.301655 135.418359 
" clip-path="url(#pc9133b0e37)" style="fill: none; stroke: #0000ff; stroke-linecap: round"/>
   </g>
   <g id="line2d_3">
    <path d="M 162.721506 123.003689 
L 176.341523 123.003689 
L 189.961539 123.003689 
L 203.581556 123.003689 
L 217.201572 123.003689 
L 230.821589 123.003689 
L 244.441606 123.003689 
L 258.061622 123.003689 
L 271.681639 123.003689 
L 285.301655 123.003689 
" clip-path="url(#pc9133b0e37)" style="fill: none; stroke: #0000ff; stroke-linecap: round"/>
   </g>
   <g id="line2d_4">
    <path d="M 162.721506 110.589018 
L 176.341523 110.589018 
L 189.961539 110.589018 
L 203.581556 110.589018 
L 217.201572 110.589018 
L 230.821589 110.589018 
L 244.441606 110.589018 
L 258.061622 110.589018 
L 271.681639 110.589018 
L 285.301655 110.589018 
" clip-path="url(#pc9133b0e37)" style="fill: none; stroke: #0000ff; stroke-linecap: round"/>
   </g>
   <g id="line2d_5">
    <path d="M 162.721506 98.174348 
L 176.341523 98.174348 
L 189.961539 98.174348 
L 203.581556 98.174348 
L 217.201572 98.174348 
L 230.821589 98.174348 
L 244.441606 98.174348 
L 258.061622 98.174348 
L 271.681639 98.174348 
L 285.301655 98.174348 
" clip-path="url(#pc9133b0e37)" style="fill: none; stroke: #0000ff; stroke-linecap: round"/>
   </g>
   <g id="line2d_6">
    <path d="M 162.721506 85.759678 
L 176.341523 85.759678 
L 189.961539 85.759678 
L 203.581556 85.759678 
L 217.201572 85.759678 
L 230.821589 85.759678 
L 244.441606 85.759678 
L 258.061622 85.759678 
L 271.681639 85.759678 
L 285.301655 85.759678 
" clip-path="url(#pc9133b0e37)" style="fill: none; stroke: #0000ff; stroke-linecap: round"/>
   </g>
   <g id="line2d_7">
    <path d="M 162.721506 73.345008 
L 176.341523 73.345008 
L 189.961539 73.345008 
L 203.581556 73.345008 
L 217.201572 73.345008 
L 230.821589 73.345008 
L 244.441606 73.345008 
L 258.061622 73.345008 
L 271.681639 73.345008 
L 285.301655 73.345008 
" clip-path="url(#pc9133b0e37)" style="fill: none; stroke: #0000ff; stroke-linecap: round"/>
   </g>
   <g id="line2d_8">
    <path d="M 162.721506 60.930338 
L 176.341523 60.930338 
L 189.961539 60.930338 
L 203.581556 60.930338 
L 217.201572 60.930338 
L 230.821589 60.930338 
L 244.441606 60.930338 
L 258.061622 60.930338 
L 271.681639 60.930338 
L 285.301655 60.930338 
" clip-path="url(#pc9133b0e37)" style="fill: none; stroke: #0000ff; stroke-linecap: round"/>
   </g>
   <g id="line2d_9">
    <path d="M 162.721506 147.833029 
L 162.721506 135.418359 
L 162.721506 123.003689 
L 162.721506 110.589018 
L 162.721506 98.174348 
L 162.721506 85.759678 
L 162.721506 73.345008 
L 162.721506 60.930338 
" clip-path="url(#pc9133b0e37)" style="fill: none; stroke: #0000ff; stroke-linecap: round"/>
   </g>
   <g id="line2d_10">
    <path d="M 176.341523 147.833029 
L 176.341523 135.418359 
L 176.341523 123.003689 
L 176.341523 110.589018 
L 176.341523 98.174348 
L 176.341523 85.759678 
L 176.341523 73.345008 
L 176.341523 60.930338 
" clip-path="url(#pc9133b0e37)" style="fill: none; stroke: #0000ff; stroke-linecap: round"/>
   </g>
   <g id="line2d_11">
    <path d="M 189.961539 147.833029 
L 189.961539 135.418359 
L 189.961539 123.003689 
L 189.961539 110.589018 
L 189.961539 98.174348 
L 189.961539 85.759678 
L 189.961539 73.345008 
L 189.961539 60.930338 
" clip-path="url(#pc9133b0e37)" style="fill: none; stroke: #0000ff; stroke-linecap: round"/>
   </g>
   <g id="line2d_12">
    <path d="M 203.581556 147.833029 
L 203.581556 135.418359 
L 203.581556 123.003689 
L 203.581556 110.589018 
L 203.581556 98.174348 
L 203.581556 85.759678 
L 203.581556 73.345008 
L 203.581556 60.930338 
" clip-path="url(#pc9133b0e37)" style="fill: none; stroke: #0000ff; stroke-linecap: round"/>
   </g>
   <g id="line2d_13">
    <path d="M 217.201572 147.833029 
L 217.201572 135.418359 
L 217.201572 123.003689 
L 217.201572 110.589018 
L 217.201572 98.174348 
L 217.201572 85.759678 
L 217.201572 73.345008 
L 217.201572 60.930338 
" clip-path="url(#pc9133b0e37)" style="fill: none; stroke: #0000ff; stroke-linecap: round"/>
   </g>
   <g id="line2d_14">
    <path d="M 230.821589 147.833029 
L 230.821589 135.418359 
L 230.821589 123.003689 
L 230.821589 110.589018 
L 230.821589 98.174348 
L 230.821589 85.759678 
L 230.821589 73.345008 
L 230.821589 60.930338 
" clip-path="url(#pc9133b0e37)" style="fill: none; stroke: #0000ff; stroke-linecap: round"/>
   </g>
   <g id="line2d_15">
    <path d="M 244.441606 147.833029 
L 244.441606 135.418359 
L 244.441606 123.003689 
L 244.441606 110.589018 
L 244.441606 98.174348 
L 244.441606 85.759678 
L 244.441606 73.345008 
L 244.441606 60.930338 
" clip-path="url(#pc9133b0e37)" style="fill: none; stroke: #0000ff; stroke-linecap: round"/>
   </g>
   <g id="line2d_16">
    <path d="M 258.061622 147.833029 
L 258.061622 135.418359 
L 258.061622 123.003689 
L 258.061622 110.589018 
L 258.061622 98.174348 
L 258.061622 85.759678 
L 258.061622 73.345008 
L 258.061622 60.930338 
" clip-path="url(#pc9133b0e37)" style="fill: none; stroke: #0000ff; stroke-linecap: round"/>
   </g>
   <g id="line2d_17">
    <path d="M 271.681639 147.833029 
L 271.681639 135.418359 
L 271.681639 123.003689 
L 271.681639 110.589018 
L 271.681639 98.174348 
L 271.681639 85.759678 
L 271.681639 73.345008 
L 271.681639 60.930338 
" clip-path="url(#pc9133b0e37)" style="fill: none; stroke: #0000ff; stroke-linecap: round"/>
   </g>
   <g id="line2d_18">
    <path d="M 285.301655 147.833029 
L 285.301655 135.418359 
L 285.301655 123.003689 
L 285.301655 110.589018 
L 285.301655 98.174348 
L 285.301655 85.759678 
L 285.301655 73.345008 
L 285.301655 60.930338 
" clip-path="url(#pc9133b0e37)" style="fill: none; stroke: #0000ff; stroke-linecap: round"/>
   </g>
   <g id="line2d_19">
    <path d="M 16.232727 254.016 
L 140.574373 176.247268 
L 173.730058 162.86662 
L 196.16425 157.292965 
L 215.408203 155.408351 
L 233.112173 155.586803 
L 250.689388 157.688828 
L 270.027266 161.549992 
L 294.062389 168.182955 
L 329.686626 181.244626 
" clip-path="url(#pc9133b0e37)" style="fill: none; stroke: #ff0000; stroke-linecap: round"/>
   </g>
   <g id="line2d_20">
    <path d="M 30.798184 198.110873 
L 150.33084 149.529928 
L 177.906326 142.525378 
L 197.920123 139.256158 
L 215.80222 138.023795 
L 232.445392 138.373222 
L 249.034192 139.766682 
L 267.122424 142.060062 
L 288.996259 145.856206 
L 319.298792 152.761584 
" clip-path="url(#pc9133b0e37)" style="fill: none; stroke: #ff0000; stroke-linecap: round"/>
   </g>
   <g id="line2d_21">
    <path d="M 106.924951 139.082784 
L 155.608036 128.758607 
L 180.294537 125.413887 
L 199.171934 123.630927 
L 216.02258 122.792595 
L 231.920856 123.055041 
L 247.971583 123.899983 
L 265.386135 125.070394 
L 286.069309 126.936965 
L 313.989878 130.23938 
" clip-path="url(#pc9133b0e37)" style="fill: none; stroke: #ff0000; stroke-linecap: round"/>
   </g>
   <g id="line2d_22">
    <path d="M 114.825118 113.302081 
L 157.923093 110.54049 
L 181.554188 109.489738 
L 199.934581 108.866648 
L 216.180691 108.582291 
L 231.588934 108.65134 
L 247.379909 108.916087 
L 264.495829 109.220926 
L 284.702094 109.598559 
L 311.786397 110.302441 
" clip-path="url(#pc9133b0e37)" style="fill: none; stroke: #ff0000; stroke-linecap: round"/>
   </g>
   <g id="line2d_23">
    <path d="M 112.904031 89.852486 
L 158.12537 92.730414 
L 181.851358 93.799302 
L 200.116278 94.300707 
L 216.197821 94.593196 
L 231.522538 94.628897 
L 247.234552 94.356503 
L 264.350144 93.815264 
L 284.638982 92.851945 
L 312.023781 91.193237 
" clip-path="url(#pc9133b0e37)" style="fill: none; stroke: #ff0000; stroke-linecap: round"/>
   </g>
   <g id="line2d_24">
    <path d="M 97.716705 62.38305 
L 156.169835 74.238988 
L 181.04422 77.592571 
L 199.724859 79.316118 
L 216.021828 80.144773 
L 231.590654 80.223634 
L 247.520199 79.603167 
L 264.967187 78.229253 
L 285.889678 75.780771 
L 315.035914 71.241293 
" clip-path="url(#pc9133b0e37)" style="fill: none; stroke: #ff0000; stroke-linecap: round"/>
   </g>
   <g id="line2d_25">
    <path d="M 150.946304 52.796711 
L 178.925954 59.813198 
L 198.726393 63.055279 
L 215.663651 64.475092 
L 231.739892 64.625961 
L 248.203047 63.633043 
L 266.430891 61.274977 
L 288.857845 56.819537 
L 321.954587 47.907713 
" clip-path="url(#pc9133b0e37)" style="fill: none; stroke: #ff0000; stroke-linecap: round"/>
   </g>
   <g id="line2d_26">
    <path d="M 174.771585 38.026774 
L 196.867168 43.888872 
L 215.016919 46.355926 
L 231.998698 46.685634 
L 249.440816 45.103965 
L 269.12707 41.207831 
L 294.54421 33.397914 
L 340.887273 12.096 
" clip-path="url(#pc9133b0e37)" style="fill: none; stroke: #ff0000; stroke-linecap: round"/>
   </g>
   <g id="line2d_27">
    <path d="M 16.232727 254.016 
L 30.798184 198.110873 
L 106.924951 139.082784 
L 114.825118 113.302081 
L 112.904031 89.852486 
L 97.716705 62.38305 
" clip-path="url(#pc9133b0e37)" style="fill: none; stroke: #ff0000; stroke-linecap: round"/>
   </g>
   <g id="line2d_28">
    <path d="M 140.574373 176.247268 
L 150.33084 149.529928 
L 155.608036 128.758607 
L 157.923093 110.54049 
L 158.12537 92.730414 
L 156.169835 74.238988 
L 150.946304 52.796711 
" clip-path="url(#pc9133b0e37)" style="fill: none; stroke: #ff0000; stroke-linecap: round"/>
   </g>
   <g id="line2d_29">
    <path d="M 173.730058 162.86662 
L 177.906326 142.525378 
L 180.294537 125.413887 
L 181.554188 109.489738 
L 181.851358 93.799302 
L 181.04422 77.592571 
L 178.925954 59.813198 
L 174.771585 38.026774 
" clip-path="url(#pc9133b0e37)" style="fill: none; stroke: #ff0000; stroke-linecap: round"/>
   </g>
   <g id="line2d_30">
    <path d="M 196.16425 157.292965 
L 197.920123 139.256158 
L 199.171934 123.630927 
L 199.934581 108.866648 
L 200.116278 94.300707 
L 199.724859 79.316118 
L 198.726393 63.055279 
L 196.867168 43.888872 
" clip-path="url(#pc9133b0e37)" style="fill: none; stroke: #ff0000; stroke-linecap: round"/>
   </g>
   <g id="line2d_31">
    <path d="M 215.408203 155.408351 
L 215.80222 138.023795 
L 216.02258 122.792595 
L 216.180691 108.582291 
L 216.197821 94.593196 
L 216.021828 80.144773 
L 215.663651 64.475092 
L 215.016919 46.355926 
" clip-path="url(#pc9133b0e37)" style="fill: none; stroke: #ff0000; stroke-linecap: round"/>
   </g>
   <g id="line2d_32">
    <path d="M 233.112173 155.586803 
L 232.445392 138.373222 
L 231.920856 123.055041 
L 231.588934 108.65134 
L 231.522538 94.628897 
L 231.590654 80.223634 
L 231.739892 64.625961 
L 231.998698 46.685634 
" clip-path="url(#pc9133b0e37)" style="fill: none; stroke: #ff0000; stroke-linecap: round"/>
   </g>
   <g id="line2d_33">
    <path d="M 250.689388 157.688828 
L 249.034192 139.766682 
L 247.971583 123.899983 
L 247.379909 108.916087 
L 247.234552 94.356503 
L 247.520199 79.603167 
L 248.203047 63.633043 
L 249.440816 45.103965 
" clip-path="url(#pc9133b0e37)" style="fill: none; stroke: #ff0000; stroke-linecap: round"/>
   </g>
   <g id="line2d_34">
    <path d="M 270.027266 161.549992 
L 267.122424 142.060062 
L 265.386135 125.070394 
L 264.495829 109.220926 
L 264.350144 93.815264 
L 264.967187 78.229253 
L 266.430891 61.274977 
L 269.12707 41.207831 
" clip-path="url(#pc9133b0e37)" style="fill: none; stroke: #ff0000; stroke-linecap: round"/>
   </g>
   <g id="line2d_35">
    <path d="M 294.062389 168.182955 
L 288.996259 145.856206 
L 286.069309 126.936965 
L 284.702094 109.598559 
L 284.638982 92.851945 
L 285.889678 75.780771 
L 288.857845 56.819537 
L 294.54421 33.397914 
" clip-path="url(#pc9133b0e37)" style="fill: none; stroke: #ff0000; stroke-linecap: round"/>
   </g>
   <g id="line2d_36">
    <path d="M 329.686626 181.244626 
L 319.298792 152.761584 
L 313.989878 130.23938 
L 311.786397 110.302441 
L 312.023781 91.193237 
L 315.035914 71.241293 
L 321.954587 47.907713 
L 340.887273 12.096 
" clip-path="url(#pc9133b0e37)" style="fill: none; stroke: #ff0000; stroke-linecap: round"/>
   </g>
  </g>
 </g>
 <defs>
  <clipPath id="pc9133b0e37">
   <rect x="0" y="-0" width="357.12" height="266.112"/>
  </clipPath>
 </defs>
</svg>
