<?xml version="1.0" encoding="utf-8" standalone="no"?>
<!DOCTYPE svg PUBLIC "-//W3C//DTD SVG 1.1//EN"
  "http://www.w3.org/Graphics/SVG/1.1/DTD/svg11.dtd">
<svg xmlns:xlink="http://www.w3.org/1999/xlink" width="357.12pt" height="266.112pt" viewBox="0 0 357.12 266.112" xmlns="http://www.w3.org/2000/svg" version="1.1">
 <metadata>
  <rdf:RDF xmlns:dc="http://purl.org/dc/elements/1.1/" xmlns:cc="http://creativecommons.org/ns#" xmlns:rdf="http://www.w3.org/1999/02/22-rdf-syntax-ns#">
   <cc:Work>
    <dc:type rdf:resource="http://purl.org/dc/dcmitype/StillImage"/>
    <dc:date>2023-05-04T14:37:53.463662</dc:date>
    <dc:format>image/svg+xml</dc:format>
    <dc:creator>
     <cc:Agent>
      <dc:title>Matplotlib v3.6.2, https://matplotlib.org/</dc:title>
     </cc:Agent>
    </dc:creator>
   </cc:Work>
  </rdf:RDF>
 </metadata>
 <defs>
  <style type="text/css">*{stroke-linejoin: round; stroke-linecap: butt}</style>
 </defs>
 <g id="figure_1">
  <g id="patch_1">
   <path d="M 0 266.112 
L 357.12 266.112 
L 357.12 0 
L 0 0 
z
" style="fill: #ffffff"/>
  </g>
  <g id="axes_1">
   <g id="line2d_1">
    <path d="M 101.378338 210.78354 
L 120.535552 210.78354 
L 139.692766 210.78354 
L 158.849979 210.78354 
L 178.007193 210.78354 
L 197.164407 210.78354 
L 216.321621 210.78354 
L 235.478835 210.78354 
L 254.636048 210.78354 
L 273.793262 210.78354 
" clip-path="url(#p712bec825b)" style="fill: none; stroke: #0000ff; stroke-linecap: round"/>
   </g>
   <g id="line2d_2">
    <path d="M 101.378338 191.142597 
L 120.535552 191.142597 
L 139.692766 191.142597 
L 158.849979 191.142597 
L 178.007193 191.142597 
L 197.164407 191.142597 
L 216.321621 191.142597 
L 235.478835 191.142597 
L 254.636048 191.142597 
L 273.793262 191.142597 
" clip-path="url(#p712bec825b)" style="fill: none; stroke: #0000ff; stroke-linecap: round"/>
   </g>
   <g id="line2d_3">
    <path d="M 101.378338 171.501654 
L 120.535552 171.501654 
L 139.692766 171.501654 
L 158.849979 171.501654 
L 178.007193 171.501654 
L 197.164407 171.501654 
L 216.321621 171.501654 
L 235.478835 171.501654 
L 254.636048 171.501654 
L 273.793262 171.501654 
" clip-path="url(#p712bec825b)" style="fill: none; stroke: #0000ff; stroke-linecap: round"/>
   </g>
   <g id="line2d_4">
    <path d="M 101.378338 151.860712 
L 120.535552 151.860712 
L 139.692766 151.860712 
L 158.849979 151.860712 
L 178.007193 151.860712 
L 197.164407 151.860712 
L 216.321621 151.860712 
L 235.478835 151.860712 
L 254.636048 151.860712 
L 273.793262 151.860712 
" clip-path="url(#p712bec825b)" style="fill: none; stroke: #0000ff; stroke-linecap: round"/>
   </g>
   <g id="line2d_5">
    <path d="M 101.378338 132.219769 
L 120.535552 132.219769 
L 139.692766 132.219769 
L 158.849979 132.219769 
L 178.007193 132.219769 
L 197.164407 132.219769 
L 216.321621 132.219769 
L 235.478835 132.219769 
L 254.636048 132.219769 
L 273.793262 132.219769 
" clip-path="url(#p712bec825b)" style="fill: none; stroke: #0000ff; stroke-linecap: round"/>
   </g>
   <g id="line2d_6">
    <path d="M 101.378338 112.578826 
L 120.535552 112.578826 
L 139.692766 112.578826 
L 158.849979 112.578826 
L 178.007193 112.578826 
L 197.164407 112.578826 
L 216.321621 112.578826 
L 235.478835 112.578826 
L 254.636048 112.578826 
L 273.793262 112.578826 
" clip-path="url(#p712bec825b)" style="fill: none; stroke: #0000ff; stroke-linecap: round"/>
   </g>
   <g id="line2d_7">
    <path d="M 101.378338 92.937883 
L 120.535552 92.937883 
L 139.692766 92.937883 
L 158.849979 92.937883 
L 178.007193 92.937883 
L 197.164407 92.937883 
L 216.321621 92.937883 
L 235.478835 92.937883 
L 254.636048 92.937883 
L 273.793262 92.937883 
" clip-path="url(#p712bec825b)" style="fill: none; stroke: #0000ff; stroke-linecap: round"/>
   </g>
   <g id="line2d_8">
    <path d="M 101.378338 73.29694 
L 120.535552 73.29694 
L 139.692766 73.29694 
L 158.849979 73.29694 
L 178.007193 73.29694 
L 197.164407 73.29694 
L 216.321621 73.29694 
L 235.478835 73.29694 
L 254.636048 73.29694 
L 273.793262 73.29694 
" clip-path="url(#p712bec825b)" style="fill: none; stroke: #0000ff; stroke-linecap: round"/>
   </g>
   <g id="line2d_9">
    <path d="M 101.378338 210.78354 
L 101.378338 191.142597 
L 101.378338 171.501654 
L 101.378338 151.860712 
L 101.378338 132.219769 
L 101.378338 112.578826 
L 101.378338 92.937883 
L 101.378338 73.29694 
" clip-path="url(#p712bec825b)" style="fill: none; stroke: #0000ff; stroke-linecap: round"/>
   </g>
   <g id="line2d_10">
    <path d="M 120.535552 210.78354 
L 120.535552 191.142597 
L 120.535552 171.501654 
L 120.535552 151.860712 
L 120.535552 132.219769 
L 120.535552 112.578826 
L 120.535552 92.937883 
L 120.535552 73.29694 
" clip-path="url(#p712bec825b)" style="fill: none; stroke: #0000ff; stroke-linecap: round"/>
   </g>
   <g id="line2d_11">
    <path d="M 139.692766 210.78354 
L 139.692766 191.142597 
L 139.692766 171.501654 
L 139.692766 151.860712 
L 139.692766 132.219769 
L 139.692766 112.578826 
L 139.692766 92.937883 
L 139.692766 73.29694 
" clip-path="url(#p712bec825b)" style="fill: none; stroke: #0000ff; stroke-linecap: round"/>
   </g>
   <g id="line2d_12">
    <path d="M 158.849979 210.78354 
L 158.849979 191.142597 
L 158.849979 171.501654 
L 158.849979 151.860712 
L 158.849979 132.219769 
L 158.849979 112.578826 
L 158.849979 92.937883 
L 158.849979 73.29694 
" clip-path="url(#p712bec825b)" style="fill: none; stroke: #0000ff; stroke-linecap: round"/>
   </g>
   <g id="line2d_13">
    <path d="M 178.007193 210.78354 
L 178.007193 191.142597 
L 178.007193 171.501654 
L 178.007193 151.860712 
L 178.007193 132.219769 
L 178.007193 112.578826 
L 178.007193 92.937883 
L 178.007193 73.29694 
" clip-path="url(#p712bec825b)" style="fill: none; stroke: #0000ff; stroke-linecap: round"/>
   </g>
   <g id="line2d_14">
    <path d="M 197.164407 210.78354 
L 197.164407 191.142597 
L 197.164407 171.501654 
L 197.164407 151.860712 
L 197.164407 132.219769 
L 197.164407 112.578826 
L 197.164407 92.937883 
L 197.164407 73.29694 
" clip-path="url(#p712bec825b)" style="fill: none; stroke: #0000ff; stroke-linecap: round"/>
   </g>
   <g id="line2d_15">
    <path d="M 216.321621 210.78354 
L 216.321621 191.142597 
L 216.321621 171.501654 
L 216.321621 151.860712 
L 216.321621 132.219769 
L 216.321621 112.578826 
L 216.321621 92.937883 
L 216.321621 73.29694 
" clip-path="url(#p712bec825b)" style="fill: none; stroke: #0000ff; stroke-linecap: round"/>
   </g>
   <g id="line2d_16">
    <path d="M 235.478835 210.78354 
L 235.478835 191.142597 
L 235.478835 171.501654 
L 235.478835 151.860712 
L 235.478835 132.219769 
L 235.478835 112.578826 
L 235.478835 92.937883 
L 235.478835 73.29694 
" clip-path="url(#p712bec825b)" style="fill: none; stroke: #0000ff; stroke-linecap: round"/>
   </g>
   <g id="line2d_17">
    <path d="M 254.636048 210.78354 
L 254.636048 191.142597 
L 254.636048 171.501654 
L 254.636048 151.860712 
L 254.636048 132.219769 
L 254.636048 112.578826 
L 254.636048 92.937883 
L 254.636048 73.29694 
" clip-path="url(#p712bec825b)" style="fill: none; stroke: #0000ff; stroke-linecap: round"/>
   </g>
   <g id="line2d_18">
    <path d="M 273.793262 210.78354 
L 273.793262 191.142597 
L 273.793262 171.501654 
L 273.793262 151.860712 
L 273.793262 132.219769 
L 273.793262 112.578826 
L 273.793262 92.937883 
L 273.793262 73.29694 
" clip-path="url(#p712bec825b)" style="fill: none; stroke: #0000ff; stroke-linecap: round"/>
   </g>
   <g id="line2d_19">
    <path d="M 81.30226 245.721559 
L 121.541151 231.386274 
L 150.628162 225.077619 
L 175.750835 222.692769 
L 199.422222 222.692516 
L 223.41577 224.874618 
L 249.800407 229.381547 
L 282.073305 237.630878 
L 328.441948 254.016 
" clip-path="url(#p712bec825b)" style="fill: none; stroke: #ff0000; stroke-linecap: round"/>
   </g>
   <g id="line2d_20">
    <path d="M 16.232727 235.606256 
L 90.058833 209.699062 
L 125.537476 201.838636 
L 152.453353 198.076012 
L 176.256936 196.600236 
L 198.886722 196.734597 
L 221.829306 198.115083 
L 246.881709 200.815395 
L 276.838271 205.639059 
L 317.85326 214.81945 
" clip-path="url(#p712bec825b)" style="fill: none; stroke: #ff0000; stroke-linecap: round"/>
   </g>
   <g id="line2d_21">
    <path d="M 35.902856 190.828238 
L 94.7475 179.830149 
L 127.886832 175.837436 
L 153.638777 173.840134 
L 176.556153 173.000396 
L 198.504194 173.096438 
L 220.842434 173.856911 
L 245.125332 175.240876 
L 273.810992 177.698749 
L 312.280392 182.357344 
" clip-path="url(#p712bec825b)" style="fill: none; stroke: #ff0000; stroke-linecap: round"/>
   </g>
   <g id="line2d_22">
    <path d="M 41.610375 155.934924 
L 96.878662 152.589051 
L 129.069146 151.404246 
L 154.271753 150.852347 
L 176.726545 150.628544 
L 198.286648 150.657802 
L 220.333639 150.837324 
L 244.261076 151.142442 
L 272.407259 151.707873 
L 309.946308 152.900775 
" clip-path="url(#p712bec825b)" style="fill: none; stroke: #ff0000; stroke-linecap: round"/>
   </g>
   <g id="line2d_23">
    <path d="M 39.483589 122.422588 
L 96.856608 125.927782 
L 129.178031 127.394582 
L 154.340591 128.186087 
L 176.734108 128.576407 
L 198.245676 128.607503 
L 220.264748 128.268731 
L 244.19877 127.552091 
L 272.435631 126.327498 
L 310.475635 124.175303 
" clip-path="url(#p712bec825b)" style="fill: none; stroke: #ff0000; stroke-linecap: round"/>
   </g>
   <g id="line2d_24">
    <path d="M 24.235406 83.732667 
L 94.45594 98.16914 
L 128.132089 102.711075 
L 153.847959 104.970876 
L 176.552073 105.99089 
L 198.329298 106.074147 
L 220.627525 105.266109 
L 244.967624 103.461068 
L 274.013241 100.188732 
L 314.072946 94.106222 
" clip-path="url(#p712bec825b)" style="fill: none; stroke: #ff0000; stroke-linecap: round"/>
   </g>
   <g id="line2d_25">
    <path d="M 88.564193 66.701947 
L 125.616387 75.801204 
L 152.691914 80.04355 
L 176.15116 81.864526 
L 198.529854 82.032936 
L 221.461468 80.687721 
L 246.747835 77.510849 
L 277.599083 71.468614 
L 322.169079 59.531509 
" clip-path="url(#p712bec825b)" style="fill: none; stroke: #ff0000; stroke-linecap: round"/>
   </g>
   <g id="line2d_26">
    <path d="M 73.568137 22.943678 
L 120.890977 43.958803 
L 150.538541 51.442396 
L 175.420255 54.631941 
L 198.877135 54.995202 
L 222.974878 52.831124 
L 250.011301 47.55417 
L 284.34538 37.054621 
L 340.887273 12.096 
" clip-path="url(#p712bec825b)" style="fill: none; stroke: #ff0000; stroke-linecap: round"/>
   </g>
   <g id="line2d_27">
    <path d="M 16.232727 235.606256 
L 35.902856 190.828238 
L 41.610375 155.934924 
L 39.483589 122.422588 
L 24.235406 83.732667 
" clip-path="url(#p712bec825b)" style="fill: none; stroke: #ff0000; stroke-linecap: round"/>
   </g>
   <g id="line2d_28">
    <path d="M 81.30226 245.721559 
L 90.058833 209.699062 
L 94.7475 179.830149 
L 96.878662 152.589051 
L 96.856608 125.927782 
L 94.45594 98.16914 
L 88.564193 66.701947 
L 73.568137 22.943678 
" clip-path="url(#p712bec825b)" style="fill: none; stroke: #ff0000; stroke-linecap: round"/>
   </g>
   <g id="line2d_29">
    <path d="M 121.541151 231.386274 
L 125.537476 201.838636 
L 127.886832 175.837436 
L 129.069146 151.404246 
L 129.178031 127.394582 
L 128.132089 102.711075 
L 125.616387 75.801204 
L 120.890977 43.958803 
" clip-path="url(#p712bec825b)" style="fill: none; stroke: #ff0000; stroke-linecap: round"/>
   </g>
   <g id="line2d_30">
    <path d="M 150.628162 225.077619 
L 152.453353 198.076012 
L 153.638777 173.840134 
L 154.271753 150.852347 
L 154.340591 128.186087 
L 153.847959 104.970876 
L 152.691914 80.04355 
L 150.538541 51.442396 
" clip-path="url(#p712bec825b)" style="fill: none; stroke: #ff0000; stroke-linecap: round"/>
   </g>
   <g id="line2d_31">
    <path d="M 175.750835 222.692769 
L 176.256936 196.600236 
L 176.556153 173.000396 
L 176.726545 150.628544 
L 176.734108 128.576407 
L 176.552073 105.99089 
L 176.15116 81.864526 
L 175.420255 54.631941 
" clip-path="url(#p712bec825b)" style="fill: none; stroke: #ff0000; stroke-linecap: round"/>
   </g>
   <g id="line2d_32">
    <path d="M 199.422222 222.692516 
L 198.886722 196.734597 
L 198.504194 173.096438 
L 198.286648 150.657802 
L 198.245676 128.607503 
L 198.329298 106.074147 
L 198.529854 82.032936 
L 198.877135 54.995202 
" clip-path="url(#p712bec825b)" style="fill: none; stroke: #ff0000; stroke-linecap: round"/>
   </g>
   <g id="line2d_33">
    <path d="M 223.41577 224.874618 
L 221.829306 198.115083 
L 220.842434 173.856911 
L 220.333639 150.837324 
L 220.264748 128.268731 
L 220.627525 105.266109 
L 221.461468 80.687721 
L 222.974878 52.831124 
" clip-path="url(#p712bec825b)" style="fill: none; stroke: #ff0000; stroke-linecap: round"/>
   </g>
   <g id="line2d_34">
    <path d="M 249.800407 229.381547 
L 246.881709 200.815395 
L 245.125332 175.240876 
L 244.261076 151.142442 
L 244.19877 127.552091 
L 244.967624 103.461068 
L 246.747835 77.510849 
L 250.011301 47.55417 
" clip-path="url(#p712bec825b)" style="fill: none; stroke: #ff0000; stroke-linecap: round"/>
   </g>
   <g id="line2d_35">
    <path d="M 282.073305 237.630878 
L 276.838271 205.639059 
L 273.810992 177.698749 
L 272.407259 151.707873 
L 272.435631 126.327498 
L 274.013241 100.188732 
L 277.599083 71.468614 
L 284.34538 37.054621 
" clip-path="url(#p712bec825b)" style="fill: none; stroke: #ff0000; stroke-linecap: round"/>
   </g>
   <g id="line2d_36">
    <path d="M 328.441948 254.016 
L 317.85326 214.81945 
L 312.280392 182.357344 
L 309.946308 152.900775 
L 310.475635 124.175303 
L 314.072946 94.106222 
L 322.169079 59.531509 
L 340.887273 12.096 
" clip-path="url(#p712bec825b)" style="fill: none; stroke: #ff0000; stroke-linecap: round"/>
   </g>
  </g>
 </g>
 <defs>
  <clipPath id="p712bec825b">
   <rect x="0" y="-0" width="357.12" height="266.112"/>
  </clipPath>
 </defs>
</svg>
