<?xml version="1.0" encoding="utf-8" standalone="no"?>
<!DOCTYPE svg PUBLIC "-//W3C//DTD SVG 1.1//EN"
  "http://www.w3.org/Graphics/SVG/1.1/DTD/svg11.dtd">
<svg xmlns:xlink="http://www.w3.org/1999/xlink" width="357.12pt" height="266.112pt" viewBox="0 0 357.12 266.112" xmlns="http://www.w3.org/2000/svg" version="1.1">
 <metadata>
  <rdf:RDF xmlns:dc="http://purl.org/dc/elements/1.1/" xmlns:cc="http://creativecommons.org/ns#" xmlns:rdf="http://www.w3.org/1999/02/22-rdf-syntax-ns#">
   <cc:Work>
    <dc:type rdf:resource="http://purl.org/dc/dcmitype/StillImage"/>
    <dc:date>2023-05-04T14:38:14.227298</dc:date>
    <dc:format>image/svg+xml</dc:format>
    <dc:creator>
     <cc:Agent>
      <dc:title>Matplotlib v3.6.2, https://matplotlib.org/</dc:title>
     </cc:Agent>
    </dc:creator>
   </cc:Work>
  </rdf:RDF>
 </metadata>
 <defs>
  <style type="text/css">*{stroke-linejoin: round; stroke-linecap: butt}</style>
 </defs>
 <g id="figure_1">
  <g id="patch_1">
   <path d="M 0 266.112 
L 357.12 266.112 
L 357.12 0 
L 0 0 
z
" style="fill: #ffffff"/>
  </g>
  <g id="axes_1">
   <g id="line2d_1">
    <path d="M 21.941761 250.901853 
L 56.945079 250.901853 
L 91.948397 250.901853 
L 126.951716 250.901853 
L 161.955034 250.901853 
L 196.958352 250.901853 
L 231.96167 250.901853 
L 266.964988 250.901853 
L 301.968306 250.901853 
L 336.971625 250.901853 
" clip-path="url(#p51cff4da22)" style="fill: none; stroke: #0000ff; stroke-linecap: round"/>
   </g>
   <g id="line2d_2">
    <path d="M 21.941761 217.45143 
L 56.945079 217.45143 
L 91.948397 217.45143 
L 126.951716 217.45143 
L 161.955034 217.45143 
L 196.958352 217.45143 
L 231.96167 217.45143 
L 266.964988 217.45143 
L 301.968306 217.45143 
L 336.971625 217.45143 
" clip-path="url(#p51cff4da22)" style="fill: none; stroke: #0000ff; stroke-linecap: round"/>
   </g>
   <g id="line2d_3">
    <path d="M 21.941761 184.001008 
L 56.945079 184.001008 
L 91.948397 184.001008 
L 126.951716 184.001008 
L 161.955034 184.001008 
L 196.958352 184.001008 
L 231.96167 184.001008 
L 266.964988 184.001008 
L 301.968306 184.001008 
L 336.971625 184.001008 
" clip-path="url(#p51cff4da22)" style="fill: none; stroke: #0000ff; stroke-linecap: round"/>
   </g>
   <g id="line2d_4">
    <path d="M 21.941761 150.550585 
L 56.945079 150.550585 
L 91.948397 150.550585 
L 126.951716 150.550585 
L 161.955034 150.550585 
L 196.958352 150.550585 
L 231.96167 150.550585 
L 266.964988 150.550585 
L 301.968306 150.550585 
L 336.971625 150.550585 
" clip-path="url(#p51cff4da22)" style="fill: none; stroke: #0000ff; stroke-linecap: round"/>
   </g>
   <g id="line2d_5">
    <path d="M 21.941761 117.100163 
L 56.945079 117.100163 
L 91.948397 117.100163 
L 126.951716 117.100163 
L 161.955034 117.100163 
L 196.958352 117.100163 
L 231.96167 117.100163 
L 266.964988 117.100163 
L 301.968306 117.100163 
L 336.971625 117.100163 
" clip-path="url(#p51cff4da22)" style="fill: none; stroke: #0000ff; stroke-linecap: round"/>
   </g>
   <g id="line2d_6">
    <path d="M 21.941761 83.64974 
L 56.945079 83.64974 
L 91.948397 83.64974 
L 126.951716 83.64974 
L 161.955034 83.64974 
L 196.958352 83.64974 
L 231.96167 83.64974 
L 266.964988 83.64974 
L 301.968306 83.64974 
L 336.971625 83.64974 
" clip-path="url(#p51cff4da22)" style="fill: none; stroke: #0000ff; stroke-linecap: round"/>
   </g>
   <g id="line2d_7">
    <path d="M 21.941761 50.199318 
L 56.945079 50.199318 
L 91.948397 50.199318 
L 126.951716 50.199318 
L 161.955034 50.199318 
L 196.958352 50.199318 
L 231.96167 50.199318 
L 266.964988 50.199318 
L 301.968306 50.199318 
L 336.971625 50.199318 
" clip-path="url(#p51cff4da22)" style="fill: none; stroke: #0000ff; stroke-linecap: round"/>
   </g>
   <g id="line2d_8">
    <path d="M 21.941761 16.748895 
L 56.945079 16.748895 
L 91.948397 16.748895 
L 126.951716 16.748895 
L 161.955034 16.748895 
L 196.958352 16.748895 
L 231.96167 16.748895 
L 266.964988 16.748895 
L 301.968306 16.748895 
L 336.971625 16.748895 
" clip-path="url(#p51cff4da22)" style="fill: none; stroke: #0000ff; stroke-linecap: round"/>
   </g>
   <g id="line2d_9">
    <path d="M 21.941761 250.901853 
L 21.941761 217.45143 
L 21.941761 184.001008 
L 21.941761 150.550585 
L 21.941761 117.100163 
L 21.941761 83.64974 
L 21.941761 50.199318 
L 21.941761 16.748895 
" clip-path="url(#p51cff4da22)" style="fill: none; stroke: #0000ff; stroke-linecap: round"/>
   </g>
   <g id="line2d_10">
    <path d="M 56.945079 250.901853 
L 56.945079 217.45143 
L 56.945079 184.001008 
L 56.945079 150.550585 
L 56.945079 117.100163 
L 56.945079 83.64974 
L 56.945079 50.199318 
L 56.945079 16.748895 
" clip-path="url(#p51cff4da22)" style="fill: none; stroke: #0000ff; stroke-linecap: round"/>
   </g>
   <g id="line2d_11">
    <path d="M 91.948397 250.901853 
L 91.948397 217.45143 
L 91.948397 184.001008 
L 91.948397 150.550585 
L 91.948397 117.100163 
L 91.948397 83.64974 
L 91.948397 50.199318 
L 91.948397 16.748895 
" clip-path="url(#p51cff4da22)" style="fill: none; stroke: #0000ff; stroke-linecap: round"/>
   </g>
   <g id="line2d_12">
    <path d="M 126.951716 250.901853 
L 126.951716 217.45143 
L 126.951716 184.001008 
L 126.951716 150.550585 
L 126.951716 117.100163 
L 126.951716 83.64974 
L 126.951716 50.199318 
L 126.951716 16.748895 
" clip-path="url(#p51cff4da22)" style="fill: none; stroke: #0000ff; stroke-linecap: round"/>
   </g>
   <g id="line2d_13">
    <path d="M 161.955034 250.901853 
L 161.955034 217.45143 
L 161.955034 184.001008 
L 161.955034 150.550585 
L 161.955034 117.100163 
L 161.955034 83.64974 
L 161.955034 50.199318 
L 161.955034 16.748895 
" clip-path="url(#p51cff4da22)" style="fill: none; stroke: #0000ff; stroke-linecap: round"/>
   </g>
   <g id="line2d_14">
    <path d="M 196.958352 250.901853 
L 196.958352 217.45143 
L 196.958352 184.001008 
L 196.958352 150.550585 
L 196.958352 117.100163 
L 196.958352 83.64974 
L 196.958352 50.199318 
L 196.958352 16.748895 
" clip-path="url(#p51cff4da22)" style="fill: none; stroke: #0000ff; stroke-linecap: round"/>
   </g>
   <g id="line2d_15">
    <path d="M 231.96167 250.901853 
L 231.96167 217.45143 
L 231.96167 184.001008 
L 231.96167 150.550585 
L 231.96167 117.100163 
L 231.96167 83.64974 
L 231.96167 50.199318 
L 231.96167 16.748895 
" clip-path="url(#p51cff4da22)" style="fill: none; stroke: #0000ff; stroke-linecap: round"/>
   </g>
   <g id="line2d_16">
    <path d="M 266.964988 250.901853 
L 266.964988 217.45143 
L 266.964988 184.001008 
L 266.964988 150.550585 
L 266.964988 117.100163 
L 266.964988 83.64974 
L 266.964988 50.199318 
L 266.964988 16.748895 
" clip-path="url(#p51cff4da22)" style="fill: none; stroke: #0000ff; stroke-linecap: round"/>
   </g>
   <g id="line2d_17">
    <path d="M 301.968306 250.901853 
L 301.968306 217.45143 
L 301.968306 184.001008 
L 301.968306 150.550585 
L 301.968306 117.100163 
L 301.968306 83.64974 
L 301.968306 50.199318 
L 301.968306 16.748895 
" clip-path="url(#p51cff4da22)" style="fill: none; stroke: #0000ff; stroke-linecap: round"/>
   </g>
   <g id="line2d_18">
    <path d="M 336.971625 250.901853 
L 336.971625 217.45143 
L 336.971625 184.001008 
L 336.971625 150.550585 
L 336.971625 117.100163 
L 336.971625 83.64974 
L 336.971625 50.199318 
L 336.971625 16.748895 
" clip-path="url(#p51cff4da22)" style="fill: none; stroke: #0000ff; stroke-linecap: round"/>
   </g>
   <g id="line2d_19">
    <path d="M 16.232727 254.016 
L 53.313632 252.787367 
L 89.742639 251.763603 
L 125.866843 251.002188 
L 161.717518 250.722801 
L 197.357956 250.90606 
L 232.913169 251.371716 
L 268.593804 251.961663 
L 304.553104 252.618686 
L 340.887273 253.338963 
" clip-path="url(#p51cff4da22)" style="fill: none; stroke: #ff0000; stroke-linecap: round"/>
   </g>
   <g id="line2d_20">
    <path d="M 17.135042 219.010027 
L 53.995168 218.189263 
L 90.248377 217.510413 
L 126.135311 216.971646 
L 161.746597 216.761364 
L 197.191816 216.875068 
L 232.61201 217.188027 
L 268.182256 217.568329 
L 304.020885 217.994488 
L 340.21875 218.479784 
" clip-path="url(#p51cff4da22)" style="fill: none; stroke: #ff0000; stroke-linecap: round"/>
   </g>
   <g id="line2d_21">
    <path d="M 17.795899 184.324858 
L 54.484472 183.837064 
L 90.612976 183.449118 
L 126.336084 183.163241 
L 161.774276 183.047846 
L 197.078892 183.096731 
L 232.401719 183.261627 
L 267.903949 183.465763 
L 303.652506 183.689067 
L 339.747997 183.949169 
" clip-path="url(#p51cff4da22)" style="fill: none; stroke: #ff0000; stroke-linecap: round"/>
   </g>
   <g id="line2d_22">
    <path d="M 18.230875 149.842674 
L 54.789291 149.652068 
L 90.822635 149.520329 
L 126.447522 149.446664 
L 161.793911 149.425377 
L 197.020553 149.444027 
L 232.280845 149.481785 
L 267.740314 149.521897 
L 303.434081 149.569844 
L 339.467044 149.632179 
" clip-path="url(#p51cff4da22)" style="fill: none; stroke: #ff0000; stroke-linecap: round"/>
   </g>
   <g id="line2d_23">
    <path d="M 18.440616 115.496326 
L 54.917854 115.557381 
L 90.894172 115.640374 
L 126.472745 115.734784 
L 161.790981 115.802444 
L 197.001541 115.814349 
L 232.249957 115.756952 
L 267.681811 115.667546 
L 303.347919 115.558702 
L 339.357721 115.433783 
" clip-path="url(#p51cff4da22)" style="fill: none; stroke: #ff0000; stroke-linecap: round"/>
   </g>
   <g id="line2d_24">
    <path d="M 18.449888 81.166308 
L 54.895087 81.446611 
L 90.842326 81.708168 
L 126.420349 81.931684 
L 161.763885 82.064146 
L 197.003045 82.084417 
L 232.278844 81.984165 
L 267.718425 81.790774 
L 303.391715 81.542453 
L 339.402474 81.251795 
" clip-path="url(#p51cff4da22)" style="fill: none; stroke: #ff0000; stroke-linecap: round"/>
   </g>
   <g id="line2d_25">
    <path d="M 18.264275 46.729572 
L 54.727452 47.227845 
L 90.691105 47.64423 
L 126.312084 47.955919 
L 161.712199 48.140572 
L 197.010856 48.17146 
L 232.349411 48.043839 
L 267.830357 47.782712 
L 303.536241 47.429581 
L 339.574161 46.999724 
" clip-path="url(#p51cff4da22)" style="fill: none; stroke: #ff0000; stroke-linecap: round"/>
   </g>
   <g id="line2d_26">
    <path d="M 17.903698 12.096 
L 54.419913 12.782089 
L 90.455527 13.337225 
L 126.155354 13.739629 
L 161.640319 13.971501 
L 197.025895 14.007247 
L 232.448342 13.859011 
L 267.999199 13.553243 
L 303.771389 13.113061 
L 339.867019 12.558034 
" clip-path="url(#p51cff4da22)" style="fill: none; stroke: #ff0000; stroke-linecap: round"/>
   </g>
   <g id="line2d_27">
    <path d="M 16.232727 254.016 
L 17.135042 219.010027 
L 17.795899 184.324858 
L 18.230875 149.842674 
L 18.440616 115.496326 
L 18.449888 81.166308 
L 18.264275 46.729572 
L 17.903698 12.096 
" clip-path="url(#p51cff4da22)" style="fill: none; stroke: #ff0000; stroke-linecap: round"/>
   </g>
   <g id="line2d_28">
    <path d="M 53.313632 252.787367 
L 53.995168 218.189263 
L 54.484472 183.837064 
L 54.789291 149.652068 
L 54.917854 115.557381 
L 54.895087 81.446611 
L 54.727452 47.227845 
L 54.419913 12.782089 
" clip-path="url(#p51cff4da22)" style="fill: none; stroke: #ff0000; stroke-linecap: round"/>
   </g>
   <g id="line2d_29">
    <path d="M 89.742639 251.763603 
L 90.248377 217.510413 
L 90.612976 183.449118 
L 90.822635 149.520329 
L 90.894172 115.640374 
L 90.842326 81.708168 
L 90.691105 47.64423 
L 90.455527 13.337225 
" clip-path="url(#p51cff4da22)" style="fill: none; stroke: #ff0000; stroke-linecap: round"/>
   </g>
   <g id="line2d_30">
    <path d="M 125.866843 251.002188 
L 126.135311 216.971646 
L 126.336084 183.163241 
L 126.447522 149.446664 
L 126.472745 115.734784 
L 126.420349 81.931684 
L 126.312084 47.955919 
L 126.155354 13.739629 
" clip-path="url(#p51cff4da22)" style="fill: none; stroke: #ff0000; stroke-linecap: round"/>
   </g>
   <g id="line2d_31">
    <path d="M 161.717518 250.722801 
L 161.746597 216.761364 
L 161.774276 183.047846 
L 161.793911 149.425377 
L 161.790981 115.802444 
L 161.763885 82.064146 
L 161.712199 48.140572 
L 161.640319 13.971501 
" clip-path="url(#p51cff4da22)" style="fill: none; stroke: #ff0000; stroke-linecap: round"/>
   </g>
   <g id="line2d_32">
    <path d="M 197.357956 250.90606 
L 197.191816 216.875068 
L 197.078892 183.096731 
L 197.020553 149.444027 
L 197.001541 115.814349 
L 197.003045 82.084417 
L 197.010856 48.17146 
L 197.025895 14.007247 
" clip-path="url(#p51cff4da22)" style="fill: none; stroke: #ff0000; stroke-linecap: round"/>
   </g>
   <g id="line2d_33">
    <path d="M 232.913169 251.371716 
L 232.61201 217.188027 
L 232.401719 183.261627 
L 232.280845 149.481785 
L 232.249957 115.756952 
L 232.278844 81.984165 
L 232.349411 48.043839 
L 232.448342 13.859011 
" clip-path="url(#p51cff4da22)" style="fill: none; stroke: #ff0000; stroke-linecap: round"/>
   </g>
   <g id="line2d_34">
    <path d="M 268.593804 251.961663 
L 268.182256 217.568329 
L 267.903949 183.465763 
L 267.740314 149.521897 
L 267.681811 115.667546 
L 267.718425 81.790774 
L 267.830357 47.782712 
L 267.999199 13.553243 
" clip-path="url(#p51cff4da22)" style="fill: none; stroke: #ff0000; stroke-linecap: round"/>
   </g>
   <g id="line2d_35">
    <path d="M 304.553104 252.618686 
L 304.020885 217.994488 
L 303.652506 183.689067 
L 303.434081 149.569844 
L 303.347919 115.558702 
L 303.391715 81.542453 
L 303.536241 47.429581 
L 303.771389 13.113061 
" clip-path="url(#p51cff4da22)" style="fill: none; stroke: #ff0000; stroke-linecap: round"/>
   </g>
   <g id="line2d_36">
    <path d="M 340.887273 253.338963 
L 340.21875 218.479784 
L 339.747997 183.949169 
L 339.467044 149.632179 
L 339.357721 115.433783 
L 339.402474 81.251795 
L 339.574161 46.999724 
L 339.867019 12.558034 
" clip-path="url(#p51cff4da22)" style="fill: none; stroke: #ff0000; stroke-linecap: round"/>
   </g>
  </g>
 </g>
 <defs>
  <clipPath id="p51cff4da22">
   <rect x="0" y="-0" width="357.12" height="266.112"/>
  </clipPath>
 </defs>
</svg>
