<?xml version="1.0" encoding="utf-8" standalone="no"?>
<!DOCTYPE svg PUBLIC "-//W3C//DTD SVG 1.1//EN"
  "http://www.w3.org/Graphics/SVG/1.1/DTD/svg11.dtd">
<svg xmlns:xlink="http://www.w3.org/1999/xlink" width="357.12pt" height="266.112pt" viewBox="0 0 357.12 266.112" xmlns="http://www.w3.org/2000/svg" version="1.1">
 <metadata>
  <rdf:RDF xmlns:dc="http://purl.org/dc/elements/1.1/" xmlns:cc="http://creativecommons.org/ns#" xmlns:rdf="http://www.w3.org/1999/02/22-rdf-syntax-ns#">
   <cc:Work>
    <dc:type rdf:resource="http://purl.org/dc/dcmitype/StillImage"/>
    <dc:date>2023-05-04T14:38:31.407302</dc:date>
    <dc:format>image/svg+xml</dc:format>
    <dc:creator>
     <cc:Agent>
      <dc:title>Matplotlib v3.6.2, https://matplotlib.org/</dc:title>
     </cc:Agent>
    </dc:creator>
   </cc:Work>
  </rdf:RDF>
 </metadata>
 <defs>
  <style type="text/css">*{stroke-linejoin: round; stroke-linecap: butt}</style>
 </defs>
 <g id="figure_1">
  <g id="patch_1">
   <path d="M 0 266.112 
L 357.12 266.112 
L 357.12 0 
L 0 0 
z
" style="fill: #ffffff"/>
  </g>
  <g id="axes_1">
   <g id="line2d_1">
    <path d="M 29.525991 246.684273 
L 63.249325 246.684273 
L 96.972658 246.684273 
L 130.695992 246.684273 
L 164.419325 246.684273 
L 198.142659 246.684273 
L 231.865993 246.684273 
L 265.589326 246.684273 
L 299.31266 246.684273 
L 333.035993 246.684273 
" clip-path="url(#pf730e6bd30)" style="fill: none; stroke: #0000ff; stroke-linecap: round"/>
   </g>
   <g id="line2d_2">
    <path d="M 29.525991 214.708438 
L 63.249325 214.708438 
L 96.972658 214.708438 
L 130.695992 214.708438 
L 164.419325 214.708438 
L 198.142659 214.708438 
L 231.865993 214.708438 
L 265.589326 214.708438 
L 299.31266 214.708438 
L 333.035993 214.708438 
" clip-path="url(#pf730e6bd30)" style="fill: none; stroke: #0000ff; stroke-linecap: round"/>
   </g>
   <g id="line2d_3">
    <path d="M 29.525991 182.732603 
L 63.249325 182.732603 
L 96.972658 182.732603 
L 130.695992 182.732603 
L 164.419325 182.732603 
L 198.142659 182.732603 
L 231.865993 182.732603 
L 265.589326 182.732603 
L 299.31266 182.732603 
L 333.035993 182.732603 
" clip-path="url(#pf730e6bd30)" style="fill: none; stroke: #0000ff; stroke-linecap: round"/>
   </g>
   <g id="line2d_4">
    <path d="M 29.525991 150.756768 
L 63.249325 150.756768 
L 96.972658 150.756768 
L 130.695992 150.756768 
L 164.419325 150.756768 
L 198.142659 150.756768 
L 231.865993 150.756768 
L 265.589326 150.756768 
L 299.31266 150.756768 
L 333.035993 150.756768 
" clip-path="url(#pf730e6bd30)" style="fill: none; stroke: #0000ff; stroke-linecap: round"/>
   </g>
   <g id="line2d_5">
    <path d="M 29.525991 118.780933 
L 63.249325 118.780933 
L 96.972658 118.780933 
L 130.695992 118.780933 
L 164.419325 118.780933 
L 198.142659 118.780933 
L 231.865993 118.780933 
L 265.589326 118.780933 
L 299.31266 118.780933 
L 333.035993 118.780933 
" clip-path="url(#pf730e6bd30)" style="fill: none; stroke: #0000ff; stroke-linecap: round"/>
   </g>
   <g id="line2d_6">
    <path d="M 29.525991 86.805098 
L 63.249325 86.805098 
L 96.972658 86.805098 
L 130.695992 86.805098 
L 164.419325 86.805098 
L 198.142659 86.805098 
L 231.865993 86.805098 
L 265.589326 86.805098 
L 299.31266 86.805098 
L 333.035993 86.805098 
" clip-path="url(#pf730e6bd30)" style="fill: none; stroke: #0000ff; stroke-linecap: round"/>
   </g>
   <g id="line2d_7">
    <path d="M 29.525991 54.829263 
L 63.249325 54.829263 
L 96.972658 54.829263 
L 130.695992 54.829263 
L 164.419325 54.829263 
L 198.142659 54.829263 
L 231.865993 54.829263 
L 265.589326 54.829263 
L 299.31266 54.829263 
L 333.035993 54.829263 
" clip-path="url(#pf730e6bd30)" style="fill: none; stroke: #0000ff; stroke-linecap: round"/>
   </g>
   <g id="line2d_8">
    <path d="M 29.525991 22.853428 
L 63.249325 22.853428 
L 96.972658 22.853428 
L 130.695992 22.853428 
L 164.419325 22.853428 
L 198.142659 22.853428 
L 231.865993 22.853428 
L 265.589326 22.853428 
L 299.31266 22.853428 
L 333.035993 22.853428 
" clip-path="url(#pf730e6bd30)" style="fill: none; stroke: #0000ff; stroke-linecap: round"/>
   </g>
   <g id="line2d_9">
    <path d="M 29.525991 246.684273 
L 29.525991 214.708438 
L 29.525991 182.732603 
L 29.525991 150.756768 
L 29.525991 118.780933 
L 29.525991 86.805098 
L 29.525991 54.829263 
L 29.525991 22.853428 
" clip-path="url(#pf730e6bd30)" style="fill: none; stroke: #0000ff; stroke-linecap: round"/>
   </g>
   <g id="line2d_10">
    <path d="M 63.249325 246.684273 
L 63.249325 214.708438 
L 63.249325 182.732603 
L 63.249325 150.756768 
L 63.249325 118.780933 
L 63.249325 86.805098 
L 63.249325 54.829263 
L 63.249325 22.853428 
" clip-path="url(#pf730e6bd30)" style="fill: none; stroke: #0000ff; stroke-linecap: round"/>
   </g>
   <g id="line2d_11">
    <path d="M 96.972658 246.684273 
L 96.972658 214.708438 
L 96.972658 182.732603 
L 96.972658 150.756768 
L 96.972658 118.780933 
L 96.972658 86.805098 
L 96.972658 54.829263 
L 96.972658 22.853428 
" clip-path="url(#pf730e6bd30)" style="fill: none; stroke: #0000ff; stroke-linecap: round"/>
   </g>
   <g id="line2d_12">
    <path d="M 130.695992 246.684273 
L 130.695992 214.708438 
L 130.695992 182.732603 
L 130.695992 150.756768 
L 130.695992 118.780933 
L 130.695992 86.805098 
L 130.695992 54.829263 
L 130.695992 22.853428 
" clip-path="url(#pf730e6bd30)" style="fill: none; stroke: #0000ff; stroke-linecap: round"/>
   </g>
   <g id="line2d_13">
    <path d="M 164.419325 246.684273 
L 164.419325 214.708438 
L 164.419325 182.732603 
L 164.419325 150.756768 
L 164.419325 118.780933 
L 164.419325 86.805098 
L 164.419325 54.829263 
L 164.419325 22.853428 
" clip-path="url(#pf730e6bd30)" style="fill: none; stroke: #0000ff; stroke-linecap: round"/>
   </g>
   <g id="line2d_14">
    <path d="M 198.142659 246.684273 
L 198.142659 214.708438 
L 198.142659 182.732603 
L 198.142659 150.756768 
L 198.142659 118.780933 
L 198.142659 86.805098 
L 198.142659 54.829263 
L 198.142659 22.853428 
" clip-path="url(#pf730e6bd30)" style="fill: none; stroke: #0000ff; stroke-linecap: round"/>
   </g>
   <g id="line2d_15">
    <path d="M 231.865993 246.684273 
L 231.865993 214.708438 
L 231.865993 182.732603 
L 231.865993 150.756768 
L 231.865993 118.780933 
L 231.865993 86.805098 
L 231.865993 54.829263 
L 231.865993 22.853428 
" clip-path="url(#pf730e6bd30)" style="fill: none; stroke: #0000ff; stroke-linecap: round"/>
   </g>
   <g id="line2d_16">
    <path d="M 265.589326 246.684273 
L 265.589326 214.708438 
L 265.589326 182.732603 
L 265.589326 150.756768 
L 265.589326 118.780933 
L 265.589326 86.805098 
L 265.589326 54.829263 
L 265.589326 22.853428 
" clip-path="url(#pf730e6bd30)" style="fill: none; stroke: #0000ff; stroke-linecap: round"/>
   </g>
   <g id="line2d_17">
    <path d="M 299.31266 246.684273 
L 299.31266 214.708438 
L 299.31266 182.732603 
L 299.31266 150.756768 
L 299.31266 118.780933 
L 299.31266 86.805098 
L 299.31266 54.829263 
L 299.31266 22.853428 
" clip-path="url(#pf730e6bd30)" style="fill: none; stroke: #0000ff; stroke-linecap: round"/>
   </g>
   <g id="line2d_18">
    <path d="M 333.035993 246.684273 
L 333.035993 214.708438 
L 333.035993 182.732603 
L 333.035993 150.756768 
L 333.035993 118.780933 
L 333.035993 86.805098 
L 333.035993 54.829263 
L 333.035993 22.853428 
" clip-path="url(#pf730e6bd30)" style="fill: none; stroke: #0000ff; stroke-linecap: round"/>
   </g>
   <g id="line2d_19">
    <path d="M 16.232727 254.016 
L 54.462477 250.497782 
L 91.632233 247.623438 
L 128.064048 245.649186 
L 163.967957 244.98349 
L 199.258576 245.570144 
L 234.185002 246.887438 
L 269.204767 248.549097 
L 304.705622 250.379409 
L 340.887273 252.299812 
" clip-path="url(#pf730e6bd30)" style="fill: none; stroke: #ff0000; stroke-linecap: round"/>
   </g>
   <g id="line2d_20">
    <path d="M 19.111349 218.303744 
L 56.530722 215.94919 
L 92.991221 214.005893 
L 128.759277 212.548657 
L 163.987931 212.011084 
L 198.759804 212.424967 
L 233.325447 213.391539 
L 268.02406 214.492873 
L 303.174044 215.641627 
L 338.937036 216.855472 
" clip-path="url(#pf730e6bd30)" style="fill: none; stroke: #ff0000; stroke-linecap: round"/>
   </g>
   <g id="line2d_21">
    <path d="M 21.249165 183.454337 
L 58.076103 182.039141 
L 94.027918 180.86083 
L 129.325973 179.982926 
L 164.029069 179.637231 
L 198.385108 179.842435 
L 232.675897 180.416615 
L 267.200411 181.040374 
L 302.117439 181.637171 
L 337.5828 182.26404 
" clip-path="url(#pf730e6bd30)" style="fill: none; stroke: #ff0000; stroke-linecap: round"/>
   </g>
   <g id="line2d_22">
    <path d="M 22.641836 149.105645 
L 59.119734 148.475121 
L 94.729156 147.934919 
L 129.699803 147.574515 
L 164.081468 147.443733 
L 198.169657 147.512801 
L 232.272291 147.695761 
L 266.694185 147.852548 
L 301.459071 147.990903 
L 336.739405 148.141836 
" clip-path="url(#pf730e6bd30)" style="fill: none; stroke: #ff0000; stroke-linecap: round"/>
   </g>
   <g id="line2d_23">
    <path d="M 23.33198 114.961398 
L 59.65789 114.978271 
L 95.08766 114.995928 
L 129.855305 115.081938 
L 164.092166 115.216577 
L 198.098484 115.249128 
L 232.164394 115.094838 
L 266.486371 114.869956 
L 301.136645 114.667566 
L 336.341233 114.432115 
" clip-path="url(#pf730e6bd30)" style="fill: none; stroke: #ff0000; stroke-linecap: round"/>
   </g>
   <g id="line2d_24">
    <path d="M 23.454025 80.730559 
L 59.730865 81.30097 
L 95.073738 81.850204 
L 129.757432 82.361794 
L 164.015381 82.708658 
L 198.100762 82.762106 
L 232.226788 82.524175 
L 266.521715 82.087671 
L 301.169809 81.523881 
L 336.358075 80.887493 
" clip-path="url(#pf730e6bd30)" style="fill: none; stroke: #ff0000; stroke-linecap: round"/>
   </g>
   <g id="line2d_25">
    <path d="M 23.069537 46.547098 
L 59.357971 47.641285 
L 94.733564 48.582406 
L 129.495043 49.328529 
L 163.887958 49.773504 
L 198.109088 49.853135 
L 232.360526 49.583112 
L 266.764121 49.009098 
L 301.500244 48.202634 
L 336.712752 47.272035 
" clip-path="url(#pf730e6bd30)" style="fill: none; stroke: #ff0000; stroke-linecap: round"/>
   </g>
   <g id="line2d_26">
    <path d="M 22.266832 12.096 
L 58.666737 13.567223 
L 94.184283 14.79521 
L 129.11973 15.718295 
L 163.71136 16.264393 
L 198.12124 16.385443 
L 232.550766 16.093926 
L 267.135306 15.440999 
L 302.019669 14.496307 
L 337.342179 13.344446 
" clip-path="url(#pf730e6bd30)" style="fill: none; stroke: #ff0000; stroke-linecap: round"/>
   </g>
   <g id="line2d_27">
    <path d="M 16.232727 254.016 
L 19.111349 218.303744 
L 21.249165 183.454337 
L 22.641836 149.105645 
L 23.33198 114.961398 
L 23.454025 80.730559 
L 23.069537 46.547098 
L 22.266832 12.096 
" clip-path="url(#pf730e6bd30)" style="fill: none; stroke: #ff0000; stroke-linecap: round"/>
   </g>
   <g id="line2d_28">
    <path d="M 54.462477 250.497782 
L 56.530722 215.94919 
L 58.076103 182.039141 
L 59.119734 148.475121 
L 59.65789 114.978271 
L 59.730865 81.30097 
L 59.357971 47.641285 
L 58.666737 13.567223 
" clip-path="url(#pf730e6bd30)" style="fill: none; stroke: #ff0000; stroke-linecap: round"/>
   </g>
   <g id="line2d_29">
    <path d="M 91.632233 247.623438 
L 92.991221 214.005893 
L 94.027918 180.86083 
L 94.729156 147.934919 
L 95.08766 114.995928 
L 95.073738 81.850204 
L 94.733564 48.582406 
L 94.184283 14.79521 
" clip-path="url(#pf730e6bd30)" style="fill: none; stroke: #ff0000; stroke-linecap: round"/>
   </g>
   <g id="line2d_30">
    <path d="M 128.064048 245.649186 
L 128.759277 212.548657 
L 129.325973 179.982926 
L 129.699803 147.574515 
L 129.855305 115.081938 
L 129.757432 82.361794 
L 129.495043 49.328529 
L 129.11973 15.718295 
" clip-path="url(#pf730e6bd30)" style="fill: none; stroke: #ff0000; stroke-linecap: round"/>
   </g>
   <g id="line2d_31">
    <path d="M 163.967957 244.98349 
L 163.987931 212.011084 
L 164.029069 179.637231 
L 164.081468 147.443733 
L 164.092166 115.216577 
L 164.015381 82.708658 
L 163.887958 49.773504 
L 163.71136 16.264393 
" clip-path="url(#pf730e6bd30)" style="fill: none; stroke: #ff0000; stroke-linecap: round"/>
   </g>
   <g id="line2d_32">
    <path d="M 199.258576 245.570144 
L 198.759804 212.424967 
L 198.385108 179.842435 
L 198.169657 147.512801 
L 198.098484 115.249128 
L 198.100762 82.762106 
L 198.109088 49.853135 
L 198.12124 16.385443 
" clip-path="url(#pf730e6bd30)" style="fill: none; stroke: #ff0000; stroke-linecap: round"/>
   </g>
   <g id="line2d_33">
    <path d="M 234.185002 246.887438 
L 233.325447 213.391539 
L 232.675897 180.416615 
L 232.272291 147.695761 
L 232.164394 115.094838 
L 232.226788 82.524175 
L 232.360526 49.583112 
L 232.550766 16.093926 
" clip-path="url(#pf730e6bd30)" style="fill: none; stroke: #ff0000; stroke-linecap: round"/>
   </g>
   <g id="line2d_34">
    <path d="M 269.204767 248.549097 
L 268.02406 214.492873 
L 267.200411 181.040374 
L 266.694185 147.852548 
L 266.486371 114.869956 
L 266.521715 82.087671 
L 266.764121 49.009098 
L 267.135306 15.440999 
" clip-path="url(#pf730e6bd30)" style="fill: none; stroke: #ff0000; stroke-linecap: round"/>
   </g>
   <g id="line2d_35">
    <path d="M 304.705622 250.379409 
L 303.174044 215.641627 
L 302.117439 181.637171 
L 301.459071 147.990903 
L 301.136645 114.667566 
L 301.169809 81.523881 
L 301.500244 48.202634 
L 302.019669 14.496307 
" clip-path="url(#pf730e6bd30)" style="fill: none; stroke: #ff0000; stroke-linecap: round"/>
   </g>
   <g id="line2d_36">
    <path d="M 340.887273 252.299812 
L 338.937036 216.855472 
L 337.5828 182.26404 
L 336.739405 148.141836 
L 336.341233 114.432115 
L 336.358075 80.887493 
L 336.712752 47.272035 
L 337.342179 13.344446 
" clip-path="url(#pf730e6bd30)" style="fill: none; stroke: #ff0000; stroke-linecap: round"/>
   </g>
  </g>
 </g>
 <defs>
  <clipPath id="pf730e6bd30">
   <rect x="0" y="-0" width="357.12" height="266.112"/>
  </clipPath>
 </defs>
</svg>
