<?xml version="1.0" encoding="utf-8" standalone="no"?>
<!DOCTYPE svg PUBLIC "-//W3C//DTD SVG 1.1//EN"
  "http://www.w3.org/Graphics/SVG/1.1/DTD/svg11.dtd">
<svg xmlns:xlink="http://www.w3.org/1999/xlink" width="357.12pt" height="266.112pt" viewBox="0 0 357.12 266.112" xmlns="http://www.w3.org/2000/svg" version="1.1">
 <metadata>
  <rdf:RDF xmlns:dc="http://purl.org/dc/elements/1.1/" xmlns:cc="http://creativecommons.org/ns#" xmlns:rdf="http://www.w3.org/1999/02/22-rdf-syntax-ns#">
   <cc:Work>
    <dc:type rdf:resource="http://purl.org/dc/dcmitype/StillImage"/>
    <dc:date>2023-05-15T10:41:59.451860</dc:date>
    <dc:format>image/svg+xml</dc:format>
    <dc:creator>
     <cc:Agent>
      <dc:title>Matplotlib v3.6.2, https://matplotlib.org/</dc:title>
     </cc:Agent>
    </dc:creator>
   </cc:Work>
  </rdf:RDF>
 </metadata>
 <defs>
  <style type="text/css">*{stroke-linejoin: round; stroke-linecap: butt}</style>
 </defs>
 <g id="figure_1">
  <g id="patch_1">
   <path d="M 0 266.112 
L 357.12 266.112 
L 357.12 0 
L 0 0 
z
" style="fill: #ffffff"/>
  </g>
  <g id="axes_1">
   <g id="line2d_1">
    <path d="M 16.232727 254.016 
L 52.305455 254.016 
L 88.378182 254.016 
L 124.450909 254.016 
L 160.523636 254.016 
L 196.596364 254.016 
L 232.669091 254.016 
L 268.741818 254.016 
L 304.814545 254.016 
L 340.887273 254.016 
" clip-path="url(#pfbe76442f0)" style="fill: none; stroke: #0000ff; stroke-linecap: round"/>
   </g>
   <g id="line2d_2">
    <path d="M 16.232727 219.456 
L 52.305455 219.456 
L 88.378182 219.456 
L 124.450909 219.456 
L 160.523636 219.456 
L 196.596364 219.456 
L 232.669091 219.456 
L 268.741818 219.456 
L 304.814545 219.456 
L 340.887273 219.456 
" clip-path="url(#pfbe76442f0)" style="fill: none; stroke: #0000ff; stroke-linecap: round"/>
   </g>
   <g id="line2d_3">
    <path d="M 16.232727 184.896 
L 52.305455 184.896 
L 88.378182 184.896 
L 124.450909 184.896 
L 160.523636 184.896 
L 196.596364 184.896 
L 232.669091 184.896 
L 268.741818 184.896 
L 304.814545 184.896 
L 340.887273 184.896 
" clip-path="url(#pfbe76442f0)" style="fill: none; stroke: #0000ff; stroke-linecap: round"/>
   </g>
   <g id="line2d_4">
    <path d="M 16.232727 150.336 
L 52.305455 150.336 
L 88.378182 150.336 
L 124.450909 150.336 
L 160.523636 150.336 
L 196.596364 150.336 
L 232.669091 150.336 
L 268.741818 150.336 
L 304.814545 150.336 
L 340.887273 150.336 
" clip-path="url(#pfbe76442f0)" style="fill: none; stroke: #0000ff; stroke-linecap: round"/>
   </g>
   <g id="line2d_5">
    <path d="M 16.232727 115.776 
L 52.305455 115.776 
L 88.378182 115.776 
L 124.450909 115.776 
L 160.523636 115.776 
L 196.596364 115.776 
L 232.669091 115.776 
L 268.741818 115.776 
L 304.814545 115.776 
L 340.887273 115.776 
" clip-path="url(#pfbe76442f0)" style="fill: none; stroke: #0000ff; stroke-linecap: round"/>
   </g>
   <g id="line2d_6">
    <path d="M 16.232727 81.216 
L 52.305455 81.216 
L 88.378182 81.216 
L 124.450909 81.216 
L 160.523636 81.216 
L 196.596364 81.216 
L 232.669091 81.216 
L 268.741818 81.216 
L 304.814545 81.216 
L 340.887273 81.216 
" clip-path="url(#pfbe76442f0)" style="fill: none; stroke: #0000ff; stroke-linecap: round"/>
   </g>
   <g id="line2d_7">
    <path d="M 16.232727 46.656 
L 52.305455 46.656 
L 88.378182 46.656 
L 124.450909 46.656 
L 160.523636 46.656 
L 196.596364 46.656 
L 232.669091 46.656 
L 268.741818 46.656 
L 304.814545 46.656 
L 340.887273 46.656 
" clip-path="url(#pfbe76442f0)" style="fill: none; stroke: #0000ff; stroke-linecap: round"/>
   </g>
   <g id="line2d_8">
    <path d="M 16.232727 12.096 
L 52.305455 12.096 
L 88.378182 12.096 
L 124.450909 12.096 
L 160.523636 12.096 
L 196.596364 12.096 
L 232.669091 12.096 
L 268.741818 12.096 
L 304.814545 12.096 
L 340.887273 12.096 
" clip-path="url(#pfbe76442f0)" style="fill: none; stroke: #0000ff; stroke-linecap: round"/>
   </g>
   <g id="line2d_9">
    <path d="M 16.232727 254.016 
L 16.232727 219.456 
L 16.232727 184.896 
L 16.232727 150.336 
L 16.232727 115.776 
L 16.232727 81.216 
L 16.232727 46.656 
L 16.232727 12.096 
" clip-path="url(#pfbe76442f0)" style="fill: none; stroke: #0000ff; stroke-linecap: round"/>
   </g>
   <g id="line2d_10">
    <path d="M 52.305455 254.016 
L 52.305455 219.456 
L 52.305455 184.896 
L 52.305455 150.336 
L 52.305455 115.776 
L 52.305455 81.216 
L 52.305455 46.656 
L 52.305455 12.096 
" clip-path="url(#pfbe76442f0)" style="fill: none; stroke: #0000ff; stroke-linecap: round"/>
   </g>
   <g id="line2d_11">
    <path d="M 88.378182 254.016 
L 88.378182 219.456 
L 88.378182 184.896 
L 88.378182 150.336 
L 88.378182 115.776 
L 88.378182 81.216 
L 88.378182 46.656 
L 88.378182 12.096 
" clip-path="url(#pfbe76442f0)" style="fill: none; stroke: #0000ff; stroke-linecap: round"/>
   </g>
   <g id="line2d_12">
    <path d="M 124.450909 254.016 
L 124.450909 219.456 
L 124.450909 184.896 
L 124.450909 150.336 
L 124.450909 115.776 
L 124.450909 81.216 
L 124.450909 46.656 
L 124.450909 12.096 
" clip-path="url(#pfbe76442f0)" style="fill: none; stroke: #0000ff; stroke-linecap: round"/>
   </g>
   <g id="line2d_13">
    <path d="M 160.523636 254.016 
L 160.523636 219.456 
L 160.523636 184.896 
L 160.523636 150.336 
L 160.523636 115.776 
L 160.523636 81.216 
L 160.523636 46.656 
L 160.523636 12.096 
" clip-path="url(#pfbe76442f0)" style="fill: none; stroke: #0000ff; stroke-linecap: round"/>
   </g>
   <g id="line2d_14">
    <path d="M 196.596364 254.016 
L 196.596364 219.456 
L 196.596364 184.896 
L 196.596364 150.336 
L 196.596364 115.776 
L 196.596364 81.216 
L 196.596364 46.656 
L 196.596364 12.096 
" clip-path="url(#pfbe76442f0)" style="fill: none; stroke: #0000ff; stroke-linecap: round"/>
   </g>
   <g id="line2d_15">
    <path d="M 232.669091 254.016 
L 232.669091 219.456 
L 232.669091 184.896 
L 232.669091 150.336 
L 232.669091 115.776 
L 232.669091 81.216 
L 232.669091 46.656 
L 232.669091 12.096 
" clip-path="url(#pfbe76442f0)" style="fill: none; stroke: #0000ff; stroke-linecap: round"/>
   </g>
   <g id="line2d_16">
    <path d="M 268.741818 254.016 
L 268.741818 219.456 
L 268.741818 184.896 
L 268.741818 150.336 
L 268.741818 115.776 
L 268.741818 81.216 
L 268.741818 46.656 
L 268.741818 12.096 
" clip-path="url(#pfbe76442f0)" style="fill: none; stroke: #0000ff; stroke-linecap: round"/>
   </g>
   <g id="line2d_17">
    <path d="M 304.814545 254.016 
L 304.814545 219.456 
L 304.814545 184.896 
L 304.814545 150.336 
L 304.814545 115.776 
L 304.814545 81.216 
L 304.814545 46.656 
L 304.814545 12.096 
" clip-path="url(#pfbe76442f0)" style="fill: none; stroke: #0000ff; stroke-linecap: round"/>
   </g>
   <g id="line2d_18">
    <path d="M 340.887273 254.016 
L 340.887273 219.456 
L 340.887273 184.896 
L 340.887273 150.336 
L 340.887273 115.776 
L 340.887273 81.216 
L 340.887273 46.656 
L 340.887273 12.096 
" clip-path="url(#pfbe76442f0)" style="fill: none; stroke: #0000ff; stroke-linecap: round"/>
   </g>
   <g id="line2d_19">
    <path d="M 24.476099 247.36375 
L 57.046386 247.372242 
L 90.890294 247.082111 
L 125.839219 246.707413 
L 161.287253 246.784112 
L 196.689591 247.362473 
L 231.615747 248.038513 
L 265.845638 248.387728 
L 299.329214 248.318234 
L 331.785519 247.803502 
" clip-path="url(#pfbe76442f0)" style="fill: none; stroke: #ff0000; stroke-linecap: round"/>
   </g>
   <g id="line2d_20">
    <path d="M 25.12329 214.531099 
L 57.454984 214.537796 
L 91.165137 214.295812 
L 125.905568 213.936781 
L 161.114932 213.907262 
L 196.370924 214.296472 
L 231.291162 214.819364 
L 265.58582 215.075812 
L 299.084932 214.972298 
L 331.504053 214.543129 
" clip-path="url(#pfbe76442f0)" style="fill: none; stroke: #ff0000; stroke-linecap: round"/>
   </g>
   <g id="line2d_21">
    <path d="M 25.823623 181.495883 
L 57.930859 181.386016 
L 91.485257 181.145867 
L 126.033775 180.886313 
L 161.02528 180.831069 
L 196.128393 181.028672 
L 231.005554 181.359723 
L 265.352424 181.54104 
L 298.856428 181.479085 
L 331.224076 181.218412 
" clip-path="url(#pfbe76442f0)" style="fill: none; stroke: #ff0000; stroke-linecap: round"/>
   </g>
   <g id="line2d_22">
    <path d="M 26.550152 148.374451 
L 58.450189 148.080824 
L 91.805857 147.778173 
L 126.169344 147.569705 
L 161.002585 147.512181 
L 195.985636 147.585419 
L 230.793846 147.736395 
L 265.144263 147.844512 
L 298.608439 147.871467 
L 330.896086 147.849277 
" clip-path="url(#pfbe76442f0)" style="fill: none; stroke: #ff0000; stroke-linecap: round"/>
   </g>
   <g id="line2d_23">
    <path d="M 27.289117 115.35305 
L 58.994811 114.789058 
L 92.137583 114.345372 
L 126.298827 114.113681 
L 161.00817 114.069832 
L 195.921752 114.092231 
L 230.687206 114.112398 
L 264.957787 114.193164 
L 298.304079 114.400846 
L 330.471454 114.695533 
" clip-path="url(#pfbe76442f0)" style="fill: none; stroke: #ff0000; stroke-linecap: round"/>
   </g>
   <g id="line2d_24">
    <path d="M 28.114529 82.537604 
L 59.584423 81.625527 
L 92.480942 81.007635 
L 126.42211 80.698581 
L 161.023906 80.60579 
L 195.889031 80.610043 
L 230.595994 80.695808 
L 264.727839 80.921212 
L 297.923749 81.334687 
L 329.93644 81.930392 
" clip-path="url(#pfbe76442f0)" style="fill: none; stroke: #ff0000; stroke-linecap: round"/>
   </g>
   <g id="line2d_25">
    <path d="M 29.07115 50.288563 
L 60.260812 49.023618 
L 92.888952 48.123963 
L 126.622396 47.580839 
L 161.083108 47.327425 
L 195.827159 47.314796 
L 230.412763 47.52724 
L 264.3968 47.972225 
L 297.430033 48.668072 
L 329.24859 49.626547 
" clip-path="url(#pfbe76442f0)" style="fill: none; stroke: #ff0000; stroke-linecap: round"/>
   </g>
   <g id="line2d_26">
    <path d="M 30.214972 18.793305 
L 61.129759 17.064623 
L 93.470097 15.770512 
L 126.960528 14.927765 
L 161.203381 14.498849 
L 195.734783 14.460315 
L 230.115347 14.797788 
L 263.901851 15.504189 
L 296.729069 16.558026 
L 328.328634 17.941678 
" clip-path="url(#pfbe76442f0)" style="fill: none; stroke: #ff0000; stroke-linecap: round"/>
   </g>
   <g id="line2d_27">
    <path d="M 24.476099 247.36375 
L 25.12329 214.531099 
L 25.823623 181.495883 
L 26.550152 148.374451 
L 27.289117 115.35305 
L 28.114529 82.537604 
L 29.07115 50.288563 
L 30.214972 18.793305 
" clip-path="url(#pfbe76442f0)" style="fill: none; stroke: #ff0000; stroke-linecap: round"/>
   </g>
   <g id="line2d_28">
    <path d="M 57.046386 247.372242 
L 57.454984 214.537796 
L 57.930859 181.386016 
L 58.450189 148.080824 
L 58.994811 114.789058 
L 59.584423 81.625527 
L 60.260812 49.023618 
L 61.129759 17.064623 
" clip-path="url(#pfbe76442f0)" style="fill: none; stroke: #ff0000; stroke-linecap: round"/>
   </g>
   <g id="line2d_29">
    <path d="M 90.890294 247.082111 
L 91.165137 214.295812 
L 91.485257 181.145867 
L 91.805857 147.778173 
L 92.137583 114.345372 
L 92.480942 81.007635 
L 92.888952 48.123963 
L 93.470097 15.770512 
" clip-path="url(#pfbe76442f0)" style="fill: none; stroke: #ff0000; stroke-linecap: round"/>
   </g>
   <g id="line2d_30">
    <path d="M 125.839219 246.707413 
L 125.905568 213.936781 
L 126.033775 180.886313 
L 126.169344 147.569705 
L 126.298827 114.113681 
L 126.42211 80.698581 
L 126.622396 47.580839 
L 126.960528 14.927765 
" clip-path="url(#pfbe76442f0)" style="fill: none; stroke: #ff0000; stroke-linecap: round"/>
   </g>
   <g id="line2d_31">
    <path d="M 161.287253 246.784112 
L 161.114932 213.907262 
L 161.02528 180.831069 
L 161.002585 147.512181 
L 161.00817 114.069832 
L 161.023906 80.60579 
L 161.083108 47.327425 
L 161.203381 14.498849 
" clip-path="url(#pfbe76442f0)" style="fill: none; stroke: #ff0000; stroke-linecap: round"/>
   </g>
   <g id="line2d_32">
    <path d="M 196.689591 247.362473 
L 196.370924 214.296472 
L 196.128393 181.028672 
L 195.985636 147.585419 
L 195.921752 114.092231 
L 195.889031 80.610043 
L 195.827159 47.314796 
L 195.734783 14.460315 
" clip-path="url(#pfbe76442f0)" style="fill: none; stroke: #ff0000; stroke-linecap: round"/>
   </g>
   <g id="line2d_33">
    <path d="M 231.615747 248.038513 
L 231.291162 214.819364 
L 231.005554 181.359723 
L 230.793846 147.736395 
L 230.687206 114.112398 
L 230.595994 80.695808 
L 230.412763 47.52724 
L 230.115347 14.797788 
" clip-path="url(#pfbe76442f0)" style="fill: none; stroke: #ff0000; stroke-linecap: round"/>
   </g>
   <g id="line2d_34">
    <path d="M 265.845638 248.387728 
L 265.58582 215.075812 
L 265.352424 181.54104 
L 265.144263 147.844512 
L 264.957787 114.193164 
L 264.727839 80.921212 
L 264.3968 47.972225 
L 263.901851 15.504189 
" clip-path="url(#pfbe76442f0)" style="fill: none; stroke: #ff0000; stroke-linecap: round"/>
   </g>
   <g id="line2d_35">
    <path d="M 299.329214 248.318234 
L 299.084932 214.972298 
L 298.856428 181.479085 
L 298.608439 147.871467 
L 298.304079 114.400846 
L 297.923749 81.334687 
L 297.430033 48.668072 
L 296.729069 16.558026 
" clip-path="url(#pfbe76442f0)" style="fill: none; stroke: #ff0000; stroke-linecap: round"/>
   </g>
   <g id="line2d_36">
    <path d="M 331.785519 247.803502 
L 331.504053 214.543129 
L 331.224076 181.218412 
L 330.896086 147.849277 
L 330.471454 114.695533 
L 329.93644 81.930392 
L 329.24859 49.626547 
L 328.328634 17.941678 
" clip-path="url(#pfbe76442f0)" style="fill: none; stroke: #ff0000; stroke-linecap: round"/>
   </g>
  </g>
 </g>
 <defs>
  <clipPath id="pfbe76442f0">
   <rect x="0" y="-0" width="357.12" height="266.112"/>
  </clipPath>
 </defs>
</svg>
