<?xml version="1.0" encoding="utf-8" standalone="no"?>
<!DOCTYPE svg PUBLIC "-//W3C//DTD SVG 1.1//EN"
  "http://www.w3.org/Graphics/SVG/1.1/DTD/svg11.dtd">
<svg xmlns:xlink="http://www.w3.org/1999/xlink" width="357.12pt" height="266.112pt" viewBox="0 0 357.12 266.112" xmlns="http://www.w3.org/2000/svg" version="1.1">
 <metadata>
  <rdf:RDF xmlns:dc="http://purl.org/dc/elements/1.1/" xmlns:cc="http://creativecommons.org/ns#" xmlns:rdf="http://www.w3.org/1999/02/22-rdf-syntax-ns#">
   <cc:Work>
    <dc:type rdf:resource="http://purl.org/dc/dcmitype/StillImage"/>
    <dc:date>2023-05-15T10:42:10.797906</dc:date>
    <dc:format>image/svg+xml</dc:format>
    <dc:creator>
     <cc:Agent>
      <dc:title>Matplotlib v3.6.2, https://matplotlib.org/</dc:title>
     </cc:Agent>
    </dc:creator>
   </cc:Work>
  </rdf:RDF>
 </metadata>
 <defs>
  <style type="text/css">*{stroke-linejoin: round; stroke-linecap: butt}</style>
 </defs>
 <g id="figure_1">
  <g id="patch_1">
   <path d="M 0 266.112 
L 357.12 266.112 
L 357.12 0 
L 0 0 
z
" style="fill: #ffffff"/>
  </g>
  <g id="axes_1">
   <g id="line2d_1">
    <path d="M 16.232727 254.016 
L 52.305455 254.016 
L 88.378182 254.016 
L 124.450909 254.016 
L 160.523636 254.016 
L 196.596364 254.016 
L 232.669091 254.016 
L 268.741818 254.016 
L 304.814545 254.016 
L 340.887273 254.016 
" clip-path="url(#p70b8a09533)" style="fill: none; stroke: #0000ff; stroke-linecap: round"/>
   </g>
   <g id="line2d_2">
    <path d="M 16.232727 219.456 
L 52.305455 219.456 
L 88.378182 219.456 
L 124.450909 219.456 
L 160.523636 219.456 
L 196.596364 219.456 
L 232.669091 219.456 
L 268.741818 219.456 
L 304.814545 219.456 
L 340.887273 219.456 
" clip-path="url(#p70b8a09533)" style="fill: none; stroke: #0000ff; stroke-linecap: round"/>
   </g>
   <g id="line2d_3">
    <path d="M 16.232727 184.896 
L 52.305455 184.896 
L 88.378182 184.896 
L 124.450909 184.896 
L 160.523636 184.896 
L 196.596364 184.896 
L 232.669091 184.896 
L 268.741818 184.896 
L 304.814545 184.896 
L 340.887273 184.896 
" clip-path="url(#p70b8a09533)" style="fill: none; stroke: #0000ff; stroke-linecap: round"/>
   </g>
   <g id="line2d_4">
    <path d="M 16.232727 150.336 
L 52.305455 150.336 
L 88.378182 150.336 
L 124.450909 150.336 
L 160.523636 150.336 
L 196.596364 150.336 
L 232.669091 150.336 
L 268.741818 150.336 
L 304.814545 150.336 
L 340.887273 150.336 
" clip-path="url(#p70b8a09533)" style="fill: none; stroke: #0000ff; stroke-linecap: round"/>
   </g>
   <g id="line2d_5">
    <path d="M 16.232727 115.776 
L 52.305455 115.776 
L 88.378182 115.776 
L 124.450909 115.776 
L 160.523636 115.776 
L 196.596364 115.776 
L 232.669091 115.776 
L 268.741818 115.776 
L 304.814545 115.776 
L 340.887273 115.776 
" clip-path="url(#p70b8a09533)" style="fill: none; stroke: #0000ff; stroke-linecap: round"/>
   </g>
   <g id="line2d_6">
    <path d="M 16.232727 81.216 
L 52.305455 81.216 
L 88.378182 81.216 
L 124.450909 81.216 
L 160.523636 81.216 
L 196.596364 81.216 
L 232.669091 81.216 
L 268.741818 81.216 
L 304.814545 81.216 
L 340.887273 81.216 
" clip-path="url(#p70b8a09533)" style="fill: none; stroke: #0000ff; stroke-linecap: round"/>
   </g>
   <g id="line2d_7">
    <path d="M 16.232727 46.656 
L 52.305455 46.656 
L 88.378182 46.656 
L 124.450909 46.656 
L 160.523636 46.656 
L 196.596364 46.656 
L 232.669091 46.656 
L 268.741818 46.656 
L 304.814545 46.656 
L 340.887273 46.656 
" clip-path="url(#p70b8a09533)" style="fill: none; stroke: #0000ff; stroke-linecap: round"/>
   </g>
   <g id="line2d_8">
    <path d="M 16.232727 12.096 
L 52.305455 12.096 
L 88.378182 12.096 
L 124.450909 12.096 
L 160.523636 12.096 
L 196.596364 12.096 
L 232.669091 12.096 
L 268.741818 12.096 
L 304.814545 12.096 
L 340.887273 12.096 
" clip-path="url(#p70b8a09533)" style="fill: none; stroke: #0000ff; stroke-linecap: round"/>
   </g>
   <g id="line2d_9">
    <path d="M 16.232727 254.016 
L 16.232727 219.456 
L 16.232727 184.896 
L 16.232727 150.336 
L 16.232727 115.776 
L 16.232727 81.216 
L 16.232727 46.656 
L 16.232727 12.096 
" clip-path="url(#p70b8a09533)" style="fill: none; stroke: #0000ff; stroke-linecap: round"/>
   </g>
   <g id="line2d_10">
    <path d="M 52.305455 254.016 
L 52.305455 219.456 
L 52.305455 184.896 
L 52.305455 150.336 
L 52.305455 115.776 
L 52.305455 81.216 
L 52.305455 46.656 
L 52.305455 12.096 
" clip-path="url(#p70b8a09533)" style="fill: none; stroke: #0000ff; stroke-linecap: round"/>
   </g>
   <g id="line2d_11">
    <path d="M 88.378182 254.016 
L 88.378182 219.456 
L 88.378182 184.896 
L 88.378182 150.336 
L 88.378182 115.776 
L 88.378182 81.216 
L 88.378182 46.656 
L 88.378182 12.096 
" clip-path="url(#p70b8a09533)" style="fill: none; stroke: #0000ff; stroke-linecap: round"/>
   </g>
   <g id="line2d_12">
    <path d="M 124.450909 254.016 
L 124.450909 219.456 
L 124.450909 184.896 
L 124.450909 150.336 
L 124.450909 115.776 
L 124.450909 81.216 
L 124.450909 46.656 
L 124.450909 12.096 
" clip-path="url(#p70b8a09533)" style="fill: none; stroke: #0000ff; stroke-linecap: round"/>
   </g>
   <g id="line2d_13">
    <path d="M 160.523636 254.016 
L 160.523636 219.456 
L 160.523636 184.896 
L 160.523636 150.336 
L 160.523636 115.776 
L 160.523636 81.216 
L 160.523636 46.656 
L 160.523636 12.096 
" clip-path="url(#p70b8a09533)" style="fill: none; stroke: #0000ff; stroke-linecap: round"/>
   </g>
   <g id="line2d_14">
    <path d="M 196.596364 254.016 
L 196.596364 219.456 
L 196.596364 184.896 
L 196.596364 150.336 
L 196.596364 115.776 
L 196.596364 81.216 
L 196.596364 46.656 
L 196.596364 12.096 
" clip-path="url(#p70b8a09533)" style="fill: none; stroke: #0000ff; stroke-linecap: round"/>
   </g>
   <g id="line2d_15">
    <path d="M 232.669091 254.016 
L 232.669091 219.456 
L 232.669091 184.896 
L 232.669091 150.336 
L 232.669091 115.776 
L 232.669091 81.216 
L 232.669091 46.656 
L 232.669091 12.096 
" clip-path="url(#p70b8a09533)" style="fill: none; stroke: #0000ff; stroke-linecap: round"/>
   </g>
   <g id="line2d_16">
    <path d="M 268.741818 254.016 
L 268.741818 219.456 
L 268.741818 184.896 
L 268.741818 150.336 
L 268.741818 115.776 
L 268.741818 81.216 
L 268.741818 46.656 
L 268.741818 12.096 
" clip-path="url(#p70b8a09533)" style="fill: none; stroke: #0000ff; stroke-linecap: round"/>
   </g>
   <g id="line2d_17">
    <path d="M 304.814545 254.016 
L 304.814545 219.456 
L 304.814545 184.896 
L 304.814545 150.336 
L 304.814545 115.776 
L 304.814545 81.216 
L 304.814545 46.656 
L 304.814545 12.096 
" clip-path="url(#p70b8a09533)" style="fill: none; stroke: #0000ff; stroke-linecap: round"/>
   </g>
   <g id="line2d_18">
    <path d="M 340.887273 254.016 
L 340.887273 219.456 
L 340.887273 184.896 
L 340.887273 150.336 
L 340.887273 115.776 
L 340.887273 81.216 
L 340.887273 46.656 
L 340.887273 12.096 
" clip-path="url(#p70b8a09533)" style="fill: none; stroke: #0000ff; stroke-linecap: round"/>
   </g>
   <g id="line2d_19">
    <path d="M 37.876223 238.73839 
L 66.01511 240.251506 
L 96.375452 241.173286 
L 128.72193 241.638984 
L 162.212024 242.125154 
L 195.9396 242.71545 
L 229.112087 243.068721 
L 261.175092 242.79322 
L 291.840046 241.834005 
L 320.712854 240.235148 
" clip-path="url(#p70b8a09533)" style="fill: none; stroke: #ff0000; stroke-linecap: round"/>
   </g>
   <g id="line2d_20">
    <path d="M 37.573977 209.068807 
L 65.671579 210.14895 
L 96.086294 210.777428 
L 128.431168 211.016071 
L 161.912955 211.283144 
L 195.719047 211.691173 
L 229.079359 211.980267 
L 261.373606 211.780099 
L 292.202016 211.036776 
L 321.132255 209.830727 
" clip-path="url(#p70b8a09533)" style="fill: none; stroke: #ff0000; stroke-linecap: round"/>
   </g>
   <g id="line2d_21">
    <path d="M 37.68584 178.735343 
L 65.623379 179.26018 
L 96.024279 179.529739 
L 128.312548 179.618572 
L 161.726782 179.745924 
L 195.541046 179.966053 
L 229.003213 180.168502 
L 261.463307 180.084123 
L 292.385371 179.647111 
L 321.310985 178.951304 
" clip-path="url(#p70b8a09533)" style="fill: none; stroke: #ff0000; stroke-linecap: round"/>
   </g>
   <g id="line2d_22">
    <path d="M 38.110327 148.078241 
L 65.872368 147.955506 
L 96.131298 147.789634 
L 128.310438 147.669959 
L 161.644333 147.659616 
L 195.426271 147.750193 
L 228.905239 147.889138 
L 261.439028 147.955781 
L 292.361487 147.910031 
L 321.218033 147.788686 
" clip-path="url(#p70b8a09533)" style="fill: none; stroke: #ff0000; stroke-linecap: round"/>
   </g>
   <g id="line2d_23">
    <path d="M 38.868772 117.46693 
L 66.416256 116.61757 
L 96.44704 115.929468 
L 128.42903 115.516637 
L 161.641921 115.364874 
L 195.358416 115.385093 
L 228.804683 115.506323 
L 261.258129 115.768814 
L 292.083985 116.200679 
L 320.790257 116.769683 
" clip-path="url(#p70b8a09533)" style="fill: none; stroke: #ff0000; stroke-linecap: round"/>
   </g>
   <g id="line2d_24">
    <path d="M 40.009752 87.19674 
L 67.265351 85.564472 
L 96.986517 84.326536 
L 128.67301 83.550536 
L 161.710285 83.189882 
L 195.306275 83.170705 
L 228.623219 83.451165 
L 260.881845 84.078825 
L 291.481603 85.037873 
L 319.999298 86.275601 
" clip-path="url(#p70b8a09533)" style="fill: none; stroke: #ff0000; stroke-linecap: round"/>
   </g>
   <g id="line2d_25">
    <path d="M 41.580995 57.759135 
L 68.458986 55.360659 
L 97.779463 53.495649 
L 129.140233 52.223512 
L 161.889579 51.556699 
L 195.209274 51.483821 
L 228.253955 51.996675 
L 260.23493 53.045384 
L 290.565261 54.567551 
L 318.824316 56.491334 
" clip-path="url(#p70b8a09533)" style="fill: none; stroke: #ff0000; stroke-linecap: round"/>
   </g>
   <g id="line2d_26">
    <path d="M 43.623241 29.532126 
L 70.078357 26.321447 
L 98.970675 23.751807 
L 129.887404 21.942885 
L 162.182657 20.956713 
L 195.051011 20.823835 
L 227.671845 21.54052 
L 259.273793 23.003508 
L 289.247403 25.109761 
L 317.206429 27.732074 
" clip-path="url(#p70b8a09533)" style="fill: none; stroke: #ff0000; stroke-linecap: round"/>
   </g>
   <g id="line2d_27">
    <path d="M 37.876223 238.73839 
L 37.573977 209.068807 
L 37.68584 178.735343 
L 38.110327 148.078241 
L 38.868772 117.46693 
L 40.009752 87.19674 
L 41.580995 57.759135 
L 43.623241 29.532126 
" clip-path="url(#p70b8a09533)" style="fill: none; stroke: #ff0000; stroke-linecap: round"/>
   </g>
   <g id="line2d_28">
    <path d="M 66.01511 240.251506 
L 65.671579 210.14895 
L 65.623379 179.26018 
L 65.872368 147.955506 
L 66.416256 116.61757 
L 67.265351 85.564472 
L 68.458986 55.360659 
L 70.078357 26.321447 
" clip-path="url(#p70b8a09533)" style="fill: none; stroke: #ff0000; stroke-linecap: round"/>
   </g>
   <g id="line2d_29">
    <path d="M 96.375452 241.173286 
L 96.086294 210.777428 
L 96.024279 179.529739 
L 96.131298 147.789634 
L 96.44704 115.929468 
L 96.986517 84.326536 
L 97.779463 53.495649 
L 98.970675 23.751807 
" clip-path="url(#p70b8a09533)" style="fill: none; stroke: #ff0000; stroke-linecap: round"/>
   </g>
   <g id="line2d_30">
    <path d="M 128.72193 241.638984 
L 128.431168 211.016071 
L 128.312548 179.618572 
L 128.310438 147.669959 
L 128.42903 115.516637 
L 128.67301 83.550536 
L 129.140233 52.223512 
L 129.887404 21.942885 
" clip-path="url(#p70b8a09533)" style="fill: none; stroke: #ff0000; stroke-linecap: round"/>
   </g>
   <g id="line2d_31">
    <path d="M 162.212024 242.125154 
L 161.912955 211.283144 
L 161.726782 179.745924 
L 161.644333 147.659616 
L 161.641921 115.364874 
L 161.710285 83.189882 
L 161.889579 51.556699 
L 162.182657 20.956713 
" clip-path="url(#p70b8a09533)" style="fill: none; stroke: #ff0000; stroke-linecap: round"/>
   </g>
   <g id="line2d_32">
    <path d="M 195.9396 242.71545 
L 195.719047 211.691173 
L 195.541046 179.966053 
L 195.426271 147.750193 
L 195.358416 115.385093 
L 195.306275 83.170705 
L 195.209274 51.483821 
L 195.051011 20.823835 
" clip-path="url(#p70b8a09533)" style="fill: none; stroke: #ff0000; stroke-linecap: round"/>
   </g>
   <g id="line2d_33">
    <path d="M 229.112087 243.068721 
L 229.079359 211.980267 
L 229.003213 180.168502 
L 228.905239 147.889138 
L 228.804683 115.506323 
L 228.623219 83.451165 
L 228.253955 51.996675 
L 227.671845 21.54052 
" clip-path="url(#p70b8a09533)" style="fill: none; stroke: #ff0000; stroke-linecap: round"/>
   </g>
   <g id="line2d_34">
    <path d="M 261.175092 242.79322 
L 261.373606 211.780099 
L 261.463307 180.084123 
L 261.439028 147.955781 
L 261.258129 115.768814 
L 260.881845 84.078825 
L 260.23493 53.045384 
L 259.273793 23.003508 
" clip-path="url(#p70b8a09533)" style="fill: none; stroke: #ff0000; stroke-linecap: round"/>
   </g>
   <g id="line2d_35">
    <path d="M 291.840046 241.834005 
L 292.202016 211.036776 
L 292.385371 179.647111 
L 292.361487 147.910031 
L 292.083985 116.200679 
L 291.481603 85.037873 
L 290.565261 54.567551 
L 289.247403 25.109761 
" clip-path="url(#p70b8a09533)" style="fill: none; stroke: #ff0000; stroke-linecap: round"/>
   </g>
   <g id="line2d_36">
    <path d="M 320.712854 240.235148 
L 321.132255 209.830727 
L 321.310985 178.951304 
L 321.218033 147.788686 
L 320.790257 116.769683 
L 319.999298 86.275601 
L 318.824316 56.491334 
L 317.206429 27.732074 
" clip-path="url(#p70b8a09533)" style="fill: none; stroke: #ff0000; stroke-linecap: round"/>
   </g>
  </g>
 </g>
 <defs>
  <clipPath id="p70b8a09533">
   <rect x="0" y="-0" width="357.12" height="266.112"/>
  </clipPath>
 </defs>
</svg>
